<?xml version="1.0" encoding="UTF-8" standalone="no"?>
<!DOCTYPE svg PUBLIC "-//W3C//DTD SVG 1.1//EN"
 "http://www.w3.org/Graphics/SVG/1.1/DTD/svg11.dtd">
<!-- Generated by graphviz version 12.1.1 (20240910.0053)
 -->
<!-- Title: classes Pages: 1 -->
<svg width="2281pt" height="1008pt"
 viewBox="0.00 0.00 2280.50 1008.00" xmlns="http://www.w3.org/2000/svg" xmlns:xlink="http://www.w3.org/1999/xlink">
<g id="graph0" class="graph" transform="scale(1 1) rotate(0) translate(4 1004)">
<title>classes</title>
<polygon fill="white" stroke="none" points="-4,4 -4,-1004 2276.5,-1004 2276.5,4 -4,4"/>
<!-- src.base.shape.Airfoil -->
<g id="node1" class="node">
<title>src.base.shape.Airfoil</title>
<polygon fill="#99ddff" stroke="#99ddff" points="81.62,-230.5 81.62,-279.5 135.62,-279.5 135.62,-230.5 81.62,-230.5"/>
<text text-anchor="start" x="90.12" y="-262.2" font-family="Times New Roman,serif" font-size="14.00">Airfoil</text>
<polyline fill="none" stroke="#99ddff" points="81.62,-255 135.38,-255"/>
<polyline fill="none" stroke="#99ddff" points="81.62,-255 135.38,-255"/>
<text text-anchor="start" x="106.62" y="-237.7" font-family="Times New Roman,serif" font-size="14.00"> </text>
</g>
<!-- src.base.shape.Shape -->
<g id="node18" class="node">
<title>src.base.shape.Shape</title>
<polygon fill="#99ddff" stroke="#99ddff" points="153.62,-497.75 153.62,-546.75 207.62,-546.75 207.62,-497.75 153.62,-497.75"/>
<text text-anchor="start" x="164.12" y="-529.45" font-family="Times New Roman,serif" font-size="14.00">Shape</text>
<polyline fill="none" stroke="#99ddff" points="153.62,-522.25 207.62,-522.25"/>
<polyline fill="none" stroke="#99ddff" points="153.62,-522.25 207.62,-522.25"/>
<text text-anchor="start" x="178.75" y="-504.95" font-family="Times New Roman,serif" font-size="14.00"> </text>
</g>
<!-- src.base.shape.Airfoil&#45;&gt;src.base.shape.Shape -->
<g id="edge1" class="edge">
<title>src.base.shape.Airfoil&#45;&gt;src.base.shape.Shape</title>
<path fill="none" stroke="black" d="M115.01,-279.54C127.74,-326.41 156.3,-431.62 171.19,-486.48"/>
<polygon fill="none" stroke="black" points="167.75,-487.19 173.75,-495.92 174.51,-485.35 167.75,-487.19"/>
</g>
<!-- src.base.mesh.Axis -->
<g id="node2" class="node">
<title>src.base.mesh.Axis</title>
<polygon fill="#99ddff" stroke="#99ddff" points="891.62,-193.5 891.62,-316.5 1159.62,-316.5 1159.62,-193.5 891.62,-193.5"/>
<text text-anchor="start" x="1012.88" y="-299.2" font-family="Times New Roman,serif" font-size="14.00">Axis</text>
<polyline fill="none" stroke="#99ddff" points="891.62,-292 1159.62,-292"/>
<text text-anchor="start" x="1012.5" y="-274.7" font-family="Times New Roman,serif" font-size="14.00">dim</text>
<text text-anchor="start" x="1012.5" y="-258.2" font-family="Times New Roman,serif" font-size="14.00">label</text>
<text text-anchor="start" x="1012.5" y="-241.7" font-family="Times New Roman,serif" font-size="14.00">start</text>
<text text-anchor="start" x="1012.5" y="-225.2" font-family="Times New Roman,serif" font-size="14.00">stop</text>
<polyline fill="none" stroke="#99ddff" points="891.62,-218 1159.62,-218"/>
<text text-anchor="start" x="899.62" y="-200.7" font-family="Times New Roman,serif" font-size="14.00">arrange(step: float, center, padding): list[float]</text>
</g>
<!-- src.nse.experiments.experiment.NSEExperiment -->
<g id="node12" class="node">
<title>src.nse.experiments.experiment.NSEExperiment</title>
<polygon fill="#bbcc33" stroke="#bbcc33" points="929,-370 929,-674.5 1034.25,-674.5 1034.25,-370 929,-370"/>
<text text-anchor="start" x="937" y="-657.2" font-family="Times New Roman,serif" font-size="14.00">NSEExperiment</text>
<polyline fill="none" stroke="#bbcc33" points="929,-650 1034.25,-650"/>
<text text-anchor="start" x="951.25" y="-632.7" font-family="Times New Roman,serif" font-size="14.00">boundary</text>
<text text-anchor="start" x="951.25" y="-616.2" font-family="Times New Roman,serif" font-size="14.00">dim</text>
<text text-anchor="start" x="951.25" y="-599.7" font-family="Times New Roman,serif" font-size="14.00">evaluation</text>
<text text-anchor="start" x="951.25" y="-583.2" font-family="Times New Roman,serif" font-size="14.00">flow</text>
<text text-anchor="start" x="951.25" y="-566.7" font-family="Times New Roman,serif" font-size="14.00">foam</text>
<text text-anchor="start" x="951.25" y="-550.2" font-family="Times New Roman,serif" font-size="14.00">knowledge</text>
<text text-anchor="start" x="951.25" y="-533.7" font-family="Times New Roman,serif" font-size="14.00">learning</text>
<text text-anchor="start" x="951.25" y="-517.2" font-family="Times New Roman,serif" font-size="14.00">name</text>
<text text-anchor="start" x="951.25" y="-500.7" font-family="Times New Roman,serif" font-size="14.00">nu</text>
<text text-anchor="start" x="951.25" y="-484.2" font-family="Times New Roman,serif" font-size="14.00">obstruction</text>
<text text-anchor="start" x="951.25" y="-467.7" font-family="Times New Roman,serif" font-size="14.00">outlet</text>
<text text-anchor="start" x="951.25" y="-451.2" font-family="Times New Roman,serif" font-size="14.00">rho</text>
<text text-anchor="start" x="951.25" y="-434.7" font-family="Times New Roman,serif" font-size="14.00">supervised</text>
<text text-anchor="start" x="951.25" y="-418.2" font-family="Times New Roman,serif" font-size="14.00">x</text>
<text text-anchor="start" x="951.25" y="-401.7" font-family="Times New Roman,serif" font-size="14.00">y</text>
<polyline fill="none" stroke="#bbcc33" points="929,-394.5 1034.25,-394.5"/>
<text text-anchor="start" x="979.75" y="-377.2" font-family="Times New Roman,serif" font-size="14.00"> </text>
</g>
<!-- src.base.mesh.Axis&#45;&gt;src.nse.experiments.experiment.NSEExperiment -->
<g id="edge21" class="edge">
<title>src.base.mesh.Axis&#45;&gt;src.nse.experiments.experiment.NSEExperiment</title>
<path fill="none" stroke="black" d="M1003.01,-316.83C1001.24,-322.91 999.65,-329.04 998.38,-335 996.86,-342.08 995.48,-349.34 994.23,-356.7"/>
<polygon fill="none" stroke="black" points="994.2,-356.84 997.2,-363.4 992.31,-368.69 989.3,-362.14 994.2,-356.84"/>
<text text-anchor="middle" x="1008.5" y="-338.2" font-family="Times New Roman,serif" font-size="14.00" fill="green">__x</text>
</g>
<!-- src.base.mesh.Axis&#45;&gt;src.nse.experiments.experiment.NSEExperiment -->
<g id="edge22" class="edge">
<title>src.base.mesh.Axis&#45;&gt;src.nse.experiments.experiment.NSEExperiment</title>
<path fill="none" stroke="black" d="M1022.47,-316.76C1021.5,-328.33 1020.25,-340.31 1018.62,-351.5 1018.37,-353.27 1018.1,-355.05 1017.83,-356.84"/>
<polygon fill="none" stroke="black" points="1017.82,-356.93 1020.82,-363.49 1015.92,-368.78 1012.92,-362.22 1017.82,-356.93"/>
<text text-anchor="middle" x="1030.73" y="-338.2" font-family="Times New Roman,serif" font-size="14.00" fill="green">__y</text>
</g>
<!-- src.nse.experiments.block.Block -->
<g id="node3" class="node">
<title>src.nse.experiments.block.Block</title>
<polygon fill="#bbcc33" stroke="#bbcc33" points="819.62,-230.5 819.62,-279.5 873.62,-279.5 873.62,-230.5 819.62,-230.5"/>
<text text-anchor="start" x="830.12" y="-262.2" font-family="Times New Roman,serif" font-size="14.00">Block</text>
<polyline fill="none" stroke="#bbcc33" points="819.62,-255 872.88,-255"/>
<polyline fill="none" stroke="#bbcc33" points="819.62,-255 872.88,-255"/>
<text text-anchor="start" x="844.38" y="-237.7" font-family="Times New Roman,serif" font-size="14.00"> </text>
</g>
<!-- src.nse.experiments.block.Block&#45;&gt;src.nse.experiments.experiment.NSEExperiment -->
<g id="edge7" class="edge">
<title>src.nse.experiments.block.Block&#45;&gt;src.nse.experiments.experiment.NSEExperiment</title>
<path fill="none" stroke="black" d="M855.49,-279.98C861.36,-292.72 870.27,-307.65 882.62,-317 907.55,-335.88 929.58,-311.88 950.62,-335 957.36,-342.4 962.93,-350.68 967.51,-359.52"/>
<polygon fill="none" stroke="black" points="964.24,-360.79 971.64,-368.37 970.58,-357.82 964.24,-360.79"/>
</g>
<!-- src.base.mesh.Cloud -->
<g id="node4" class="node">
<title>src.base.mesh.Cloud</title>
<polygon fill="#99ddff" stroke="#99ddff" points="430,-448.25 430,-596.25 829.25,-596.25 829.25,-448.25 430,-448.25"/>
<text text-anchor="start" x="613.12" y="-578.95" font-family="Times New Roman,serif" font-size="14.00">Cloud</text>
<polyline fill="none" stroke="#99ddff" points="430,-571.75 829.25,-571.75"/>
<polyline fill="none" stroke="#99ddff" points="430,-571.75 829.25,-571.75"/>
<text text-anchor="start" x="438" y="-554.45" font-family="Times New Roman,serif" font-size="14.00">add(coordinate: tuple[float, float] | Coordinate, value: tp.Any): tp.Any</text>
<text text-anchor="start" x="438" y="-537.95" font-family="Times New Roman,serif" font-size="14.00">clear(): None</text>
<text text-anchor="start" x="438" y="-521.45" font-family="Times New Roman,serif" font-size="14.00">copy(): tp.Any</text>
<text text-anchor="start" x="438" y="-504.95" font-family="Times New Roman,serif" font-size="14.00">detach(): list[tuple[Coordinate, tp.Any]]</text>
<text text-anchor="start" x="438" y="-488.45" font-family="Times New Roman,serif" font-size="14.00">keys(): list[Coordinate]</text>
<text text-anchor="start" x="438" y="-471.95" font-family="Times New Roman,serif" font-size="14.00">mesh(refine): Mesh</text>
<text text-anchor="start" x="438" y="-455.45" font-family="Times New Roman,serif" font-size="14.00">numpy(): np.ndarray</text>
</g>
<!-- src.base.mesh.Coordinate -->
<g id="node5" class="node">
<title>src.base.mesh.Coordinate</title>
<polygon fill="#99ddff" stroke="#99ddff" points="102.25,-17 102.25,-123.5 287,-123.5 287,-17 102.25,-17"/>
<text text-anchor="start" x="164.62" y="-106.2" font-family="Times New Roman,serif" font-size="14.00">Coordinate</text>
<polyline fill="none" stroke="#99ddff" points="102.25,-99 287,-99"/>
<text text-anchor="start" x="191.25" y="-81.7" font-family="Times New Roman,serif" font-size="14.00">x</text>
<text text-anchor="start" x="191.25" y="-65.2" font-family="Times New Roman,serif" font-size="14.00">y</text>
<polyline fill="none" stroke="#99ddff" points="102.25,-58 287,-58"/>
<text text-anchor="start" x="110.25" y="-40.7" font-family="Times New Roman,serif" font-size="14.00">numpy(): np.ndarray</text>
<text text-anchor="start" x="110.25" y="-24.2" font-family="Times New Roman,serif" font-size="14.00">rotate(angle: float): Coordinate</text>
</g>
<!-- src.base.mesh.Coordinate&#45;&gt;src.base.shape.Airfoil -->
<g id="edge12" class="edge">
<title>src.base.mesh.Coordinate&#45;&gt;src.base.shape.Airfoil</title>
<path fill="none" stroke="black" d="M148.71,-123.75C140.9,-134.68 133.56,-146.53 128.12,-158.5 119.72,-177.01 114.91,-199.17 112.17,-217.49"/>
<polygon fill="black" stroke="black" points="112.16,-217.53 115.35,-224 110.6,-229.43 107.42,-222.96 112.16,-217.53"/>
<text text-anchor="middle" x="137.88" y="-161.7" font-family="Times New Roman,serif" font-size="14.00" fill="green">__a</text>
</g>
<!-- src.base.shape.Line -->
<g id="node9" class="node">
<title>src.base.shape.Line</title>
<polygon fill="#99ddff" stroke="#99ddff" points="153.62,-230.5 153.62,-279.5 207.62,-279.5 207.62,-230.5 153.62,-230.5"/>
<text text-anchor="start" x="168.12" y="-262.2" font-family="Times New Roman,serif" font-size="14.00">Line</text>
<polyline fill="none" stroke="#99ddff" points="153.62,-255 207.38,-255"/>
<polyline fill="none" stroke="#99ddff" points="153.62,-255 207.38,-255"/>
<text text-anchor="start" x="178.62" y="-237.7" font-family="Times New Roman,serif" font-size="14.00"> </text>
</g>
<!-- src.base.mesh.Coordinate&#45;&gt;src.base.shape.Line -->
<g id="edge13" class="edge">
<title>src.base.mesh.Coordinate&#45;&gt;src.base.shape.Line</title>
<path fill="none" stroke="black" d="M165.04,-123.89C160.11,-135 155.75,-146.88 153.12,-158.5 148.61,-178.5 154.22,-200.52 161.52,-218.37"/>
<polygon fill="black" stroke="black" points="161.58,-218.5 167.69,-222.32 166.51,-229.44 160.39,-225.61 161.58,-218.5"/>
<text text-anchor="middle" x="162.88" y="-161.7" font-family="Times New Roman,serif" font-size="14.00" fill="green">__a</text>
</g>
<!-- src.base.mesh.Coordinate&#45;&gt;src.base.shape.Line -->
<g id="edge14" class="edge">
<title>src.base.mesh.Coordinate&#45;&gt;src.base.shape.Line</title>
<path fill="none" stroke="black" d="M190.61,-123.62C188.3,-153.76 185.46,-190.86 183.4,-217.77"/>
<polygon fill="black" stroke="black" points="183.41,-217.59 186.94,-223.88 182.5,-229.56 178.97,-223.27 183.41,-217.59"/>
<text text-anchor="middle" x="197.75" y="-161.7" font-family="Times New Roman,serif" font-size="14.00" fill="green">__b</text>
</g>
<!-- src.base.shape.Rectangle -->
<g id="node16" class="node">
<title>src.base.shape.Rectangle</title>
<polygon fill="#99ddff" stroke="#99ddff" points="225.62,-230.5 225.62,-279.5 295.62,-279.5 295.62,-230.5 225.62,-230.5"/>
<text text-anchor="start" x="233.62" y="-262.2" font-family="Times New Roman,serif" font-size="14.00">Rectangle</text>
<polyline fill="none" stroke="#99ddff" points="225.62,-255 295.62,-255"/>
<polyline fill="none" stroke="#99ddff" points="225.62,-255 295.62,-255"/>
<text text-anchor="start" x="258.75" y="-237.7" font-family="Times New Roman,serif" font-size="14.00"> </text>
</g>
<!-- src.base.mesh.Coordinate&#45;&gt;src.base.shape.Rectangle -->
<g id="edge15" class="edge">
<title>src.base.mesh.Coordinate&#45;&gt;src.base.shape.Rectangle</title>
<path fill="none" stroke="black" d="M213.54,-123.62C224.52,-154.03 238.07,-191.54 247.81,-218.51"/>
<polygon fill="black" stroke="black" points="247.74,-218.32 253.54,-222.61 251.82,-229.61 246.02,-225.32 247.74,-218.32"/>
<text text-anchor="middle" x="241.33" y="-161.7" font-family="Times New Roman,serif" font-size="14.00" fill="green">__a</text>
</g>
<!-- src.base.mesh.Coordinate&#45;&gt;src.base.shape.Rectangle -->
<g id="edge16" class="edge">
<title>src.base.mesh.Coordinate&#45;&gt;src.base.shape.Rectangle</title>
<path fill="none" stroke="black" d="M237.27,-123.71C244.22,-134.65 250.48,-146.51 254.62,-158.5 261.06,-177.14 262.82,-199.04 262.85,-217.15"/>
<polygon fill="black" stroke="black" points="262.85,-217.26 266.73,-223.34 262.61,-229.26 258.73,-223.18 262.85,-217.26"/>
<text text-anchor="middle" x="268.86" y="-161.7" font-family="Times New Roman,serif" font-size="14.00" fill="green">__b</text>
</g>
<!-- src.base.shape.Cylinder -->
<g id="node6" class="node">
<title>src.base.shape.Cylinder</title>
<polygon fill="#99ddff" stroke="#99ddff" points="0,-230.5 0,-279.5 63.25,-279.5 63.25,-230.5 0,-230.5"/>
<text text-anchor="start" x="8" y="-262.2" font-family="Times New Roman,serif" font-size="14.00">Cylinder</text>
<polyline fill="none" stroke="#99ddff" points="0,-255 63.25,-255"/>
<polyline fill="none" stroke="#99ddff" points="0,-255 63.25,-255"/>
<text text-anchor="start" x="29.75" y="-237.7" font-family="Times New Roman,serif" font-size="14.00"> </text>
</g>
<!-- src.base.shape.Cylinder&#45;&gt;src.base.shape.Shape -->
<g id="edge2" class="edge">
<title>src.base.shape.Cylinder&#45;&gt;src.base.shape.Shape</title>
<path fill="none" stroke="black" d="M44.85,-279.54C71.34,-326.71 131.02,-432.94 161.67,-487.51"/>
<polygon fill="none" stroke="black" points="158.53,-489.06 166.48,-496.06 164.63,-485.63 158.53,-489.06"/>
</g>
<!-- src.base.shape.Figure -->
<g id="node7" class="node">
<title>src.base.shape.Figure</title>
<polygon fill="#99ddff" stroke="#99ddff" points="1442.62,-45.75 1442.62,-94.75 1496.62,-94.75 1496.62,-45.75 1442.62,-45.75"/>
<text text-anchor="start" x="1451.62" y="-77.45" font-family="Times New Roman,serif" font-size="14.00">Figure</text>
<polyline fill="none" stroke="#99ddff" points="1442.62,-70.25 1495.88,-70.25"/>
<polyline fill="none" stroke="#99ddff" points="1442.62,-70.25 1495.88,-70.25"/>
<text text-anchor="start" x="1467.38" y="-52.95" font-family="Times New Roman,serif" font-size="14.00"> </text>
</g>
<!-- src.nse.experiments.foam.Foam -->
<g id="node8" class="node">
<title>src.nse.experiments.foam.Foam</title>
<polygon fill="#bbcc33" stroke="#bbcc33" points="1321.62,-218.25 1321.62,-291.75 1375.62,-291.75 1375.62,-218.25 1321.62,-218.25"/>
<text text-anchor="start" x="1332.62" y="-274.45" font-family="Times New Roman,serif" font-size="14.00">Foam</text>
<polyline fill="none" stroke="#bbcc33" points="1321.62,-267.25 1375.12,-267.25"/>
<text text-anchor="start" x="1333.75" y="-249.95" font-family="Times New Roman,serif" font-size="14.00">mesh</text>
<polyline fill="none" stroke="#bbcc33" points="1321.62,-242.75 1375.12,-242.75"/>
<text text-anchor="start" x="1346.5" y="-225.45" font-family="Times New Roman,serif" font-size="14.00"> </text>
</g>
<!-- src.nse.experiments.foam.Foam&#45;&gt;src.nse.experiments.experiment.NSEExperiment -->
<g id="edge8" class="edge">
<title>src.nse.experiments.foam.Foam&#45;&gt;src.nse.experiments.experiment.NSEExperiment</title>
<path fill="none" stroke="black" d="M1331.31,-291.94C1326.07,-300.74 1319.77,-309.71 1312.62,-317 1233.55,-397.65 1116.49,-460.11 1044.85,-493.72"/>
<polygon fill="none" stroke="black" points="1043.59,-490.44 1035.99,-497.83 1046.54,-496.79 1043.59,-490.44"/>
</g>
<!-- src.base.shape.Line&#45;&gt;src.base.shape.Shape -->
<g id="edge3" class="edge">
<title>src.base.shape.Line&#45;&gt;src.base.shape.Shape</title>
<path fill="none" stroke="black" d="M180.62,-279.54C180.62,-326.32 180.62,-431.18 180.62,-486.13"/>
<polygon fill="none" stroke="black" points="177.13,-485.87 180.63,-495.87 184.13,-485.87 177.13,-485.87"/>
</g>
<!-- src.base.mesh.Mesh -->
<g id="node10" class="node">
<title>src.base.mesh.Mesh</title>
<polygon fill="#99ddff" stroke="#99ddff" points="1272.38,-0.5 1272.38,-140 1424.88,-140 1424.88,-0.5 1272.38,-0.5"/>
<text text-anchor="start" x="1333.25" y="-122.7" font-family="Times New Roman,serif" font-size="14.00">Mesh</text>
<polyline fill="none" stroke="#99ddff" points="1272.38,-115.5 1424.88,-115.5"/>
<text text-anchor="start" x="1331.75" y="-98.2" font-family="Times New Roman,serif" font-size="14.00">height</text>
<text text-anchor="start" x="1331.75" y="-81.7" font-family="Times New Roman,serif" font-size="14.00">shape</text>
<text text-anchor="start" x="1331.75" y="-65.2" font-family="Times New Roman,serif" font-size="14.00">width</text>
<polyline fill="none" stroke="#99ddff" points="1272.38,-58 1424.88,-58"/>
<text text-anchor="start" x="1280.38" y="-40.7" font-family="Times New Roman,serif" font-size="14.00">flatten(): list[Coordinate]</text>
<text text-anchor="start" x="1280.38" y="-24.2" font-family="Times New Roman,serif" font-size="14.00">map(f): Mesh</text>
<text text-anchor="start" x="1280.38" y="-7.7" font-family="Times New Roman,serif" font-size="14.00">transform(cloud: Cloud)</text>
</g>
<!-- src.base.mesh.Mesh&#45;&gt;src.nse.experiments.foam.Foam -->
<g id="edge23" class="edge">
<title>src.base.mesh.Mesh&#45;&gt;src.nse.experiments.foam.Foam</title>
<path fill="none" stroke="black" d="M1348.62,-140.34C1348.62,-161.88 1348.62,-185.17 1348.62,-205.04"/>
<polygon fill="none" stroke="black" points="1348.63,-204.95 1352.63,-210.95 1348.63,-216.95 1344.63,-210.95 1348.63,-204.95"/>
<text text-anchor="middle" x="1370" y="-161.7" font-family="Times New Roman,serif" font-size="14.00" fill="green">__mesh</text>
</g>
<!-- src.nse.data.NSECloud -->
<g id="node11" class="node">
<title>src.nse.data.NSECloud</title>
<polygon fill="#bbcc33" stroke="#bbcc33" points="555.88,-214 555.88,-296 801.38,-296 801.38,-214 555.88,-214"/>
<text text-anchor="start" x="649.38" y="-278.7" font-family="Times New Roman,serif" font-size="14.00">NSECloud</text>
<polyline fill="none" stroke="#bbcc33" points="555.88,-271.5 801.38,-271.5"/>
<polyline fill="none" stroke="#bbcc33" points="555.88,-271.5 801.38,-271.5"/>
<text text-anchor="start" x="563.88" y="-254.2" font-family="Times New Roman,serif" font-size="14.00">add(key: tuple | Coordinate): NSEFact</text>
<text text-anchor="start" x="563.88" y="-237.7" font-family="Times New Roman,serif" font-size="14.00">copy(): NSECloud</text>
<text text-anchor="start" x="563.88" y="-221.2" font-family="Times New Roman,serif" font-size="14.00">detach(): list[tuple[Coordinate, NSEFact]]</text>
</g>
<!-- src.nse.data.NSECloud&#45;&gt;src.base.mesh.Cloud -->
<g id="edge6" class="edge">
<title>src.nse.data.NSECloud&#45;&gt;src.base.mesh.Cloud</title>
<path fill="none" stroke="black" d="M657.53,-296.46C652.1,-308.56 646.88,-322.05 643.62,-335 635.43,-367.63 631.58,-404.41 629.9,-436.61"/>
<polygon fill="none" stroke="black" points="626.41,-436.14 629.46,-446.29 633.41,-436.46 626.41,-436.14"/>
</g>
<!-- src.nse.data.NSECloud&#45;&gt;src.nse.experiments.experiment.NSEExperiment -->
<g id="edge17" class="edge">
<title>src.nse.data.NSECloud&#45;&gt;src.nse.experiments.experiment.NSEExperiment</title>
<path fill="none" stroke="black" d="M658.84,-296.04C652.55,-314.99 650.24,-336.67 663.62,-351.5 689.82,-380.52 803.57,-352.19 838.62,-369.5 869.71,-384.85 897.55,-409.95 920.22,-435.36"/>
<polygon fill="black" stroke="black" points="920.2,-435.35 927.16,-437.26 928.06,-444.42 921.11,-442.5 920.2,-435.35"/>
<text text-anchor="middle" x="689.12" y="-338.2" font-family="Times New Roman,serif" font-size="14.00" fill="green">_learning</text>
</g>
<!-- src.nse.data.NSECloud&#45;&gt;src.nse.experiments.experiment.NSEExperiment -->
<g id="edge18" class="edge">
<title>src.nse.data.NSECloud&#45;&gt;src.nse.experiments.experiment.NSEExperiment</title>
<path fill="none" stroke="black" d="M694.03,-296.12C703.64,-315.82 717.96,-338.14 737.62,-351.5 775.34,-377.13 798.52,-347.81 838.62,-369.5 869.4,-386.14 897.32,-411.85 920.16,-437.4"/>
<polygon fill="black" stroke="black" points="920.19,-437.44 927.14,-439.34 928.06,-446.49 921.11,-444.59 920.19,-437.44"/>
<text text-anchor="middle" x="770.62" y="-338.2" font-family="Times New Roman,serif" font-size="14.00" fill="green">_knowledge</text>
</g>
<!-- src.nse.data.NSECloud&#45;&gt;src.nse.experiments.experiment.NSEExperiment -->
<g id="edge19" class="edge">
<title>src.nse.data.NSECloud&#45;&gt;src.nse.experiments.experiment.NSEExperiment</title>
<path fill="none" stroke="black" d="M748.56,-296.5C767.01,-308.17 786.53,-321.43 803.62,-335 845.75,-368.44 887.58,-411.56 920.09,-447.89"/>
<polygon fill="black" stroke="black" points="920.02,-447.8 926.99,-449.64 927.98,-456.78 921.01,-454.95 920.02,-447.8"/>
<text text-anchor="middle" x="851.23" y="-338.2" font-family="Times New Roman,serif" font-size="14.00" fill="green">_evaluation</text>
</g>
<!-- src.nse.data.NSECloud&#45;&gt;src.nse.experiments.experiment.NSEExperiment -->
<g id="edge20" class="edge">
<title>src.nse.data.NSECloud&#45;&gt;src.nse.experiments.experiment.NSEExperiment</title>
<path fill="none" stroke="black" d="M759.26,-296.35C775.99,-303.85 793.68,-311.15 810.62,-317 843.43,-328.34 859.33,-313.56 886.62,-335 899.95,-345.46 911.57,-358.3 921.67,-372.31"/>
<polygon fill="black" stroke="black" points="921.48,-372.03 928.17,-374.73 928.25,-381.94 921.56,-379.24 921.48,-372.03"/>
<text text-anchor="middle" x="921.95" y="-338.2" font-family="Times New Roman,serif" font-size="14.00" fill="green">_outlet</text>
</g>
<!-- src.nse.simulation.Simulation -->
<g id="node19" class="node">
<title>src.nse.simulation.Simulation</title>
<polygon fill="#bbcc33" stroke="#bbcc33" points="753.5,-728 753.5,-834.5 1209.75,-834.5 1209.75,-728 753.5,-728"/>
<text text-anchor="start" x="951.62" y="-817.2" font-family="Times New Roman,serif" font-size="14.00">Simulation</text>
<polyline fill="none" stroke="#bbcc33" points="753.5,-810 1209.75,-810"/>
<text text-anchor="start" x="972.62" y="-792.7" font-family="Times New Roman,serif" font-size="14.00">nu</text>
<text text-anchor="start" x="972.62" y="-776.2" font-family="Times New Roman,serif" font-size="14.00">rho</text>
<polyline fill="none" stroke="#bbcc33" points="753.5,-769 1209.75,-769"/>
<text text-anchor="start" x="761.5" y="-751.7" font-family="Times New Roman,serif" font-size="14.00">predict(sample: list[Coordinate]): tuple[torch.Tensor, torch.Tensor, torch.Tensor]</text>
<text text-anchor="start" x="761.5" y="-735.2" font-family="Times New Roman,serif" font-size="14.00">train(callback: ...): None</text>
</g>
<!-- src.nse.experiments.experiment.NSEExperiment&#45;&gt;src.nse.simulation.Simulation -->
<g id="edge24" class="edge">
<title>src.nse.experiments.experiment.NSEExperiment&#45;&gt;src.nse.simulation.Simulation</title>
<path fill="none" stroke="black" d="M981.62,-674.98C981.62,-688.78 981.62,-702.22 981.62,-714.62"/>
<polygon fill="none" stroke="black" points="981.63,-714.74 985.63,-720.74 981.63,-726.74 977.63,-720.74 981.63,-714.74"/>
<text text-anchor="middle" x="1019.12" y="-696.2" font-family="Times New Roman,serif" font-size="14.00" fill="green">__experiment</text>
</g>
<!-- src.nse.data.NSEFact -->
<g id="node13" class="node">
<title>src.nse.data.NSEFact</title>
<polygon fill="#bbcc33" stroke="#bbcc33" points="1514.75,-8.75 1514.75,-131.75 1744.5,-131.75 1744.5,-8.75 1514.75,-8.75"/>
<text text-anchor="start" x="1605.25" y="-114.45" font-family="Times New Roman,serif" font-size="14.00">NSEFact</text>
<polyline fill="none" stroke="#bbcc33" points="1514.75,-107.25 1744.5,-107.25"/>
<text text-anchor="start" x="1626.25" y="-89.95" font-family="Times New Roman,serif" font-size="14.00">p</text>
<text text-anchor="start" x="1626.25" y="-73.45" font-family="Times New Roman,serif" font-size="14.00">u</text>
<text text-anchor="start" x="1626.25" y="-56.95" font-family="Times New Roman,serif" font-size="14.00">v</text>
<polyline fill="none" stroke="#bbcc33" points="1514.75,-49.75 1744.5,-49.75"/>
<text text-anchor="start" x="1522.75" y="-32.45" font-family="Times New Roman,serif" font-size="14.00">numpy(): np.ndarray</text>
<text text-anchor="start" x="1522.75" y="-15.95" font-family="Times New Roman,serif" font-size="14.00">update(u: float, v: float, p: float): None</text>
</g>
<!-- src.base.plot.Plot -->
<g id="node14" class="node">
<title>src.base.plot.Plot</title>
<polygon fill="#99ddff" stroke="#99ddff" points="1762.62,-45.75 1762.62,-94.75 2156.62,-94.75 2156.62,-45.75 1762.62,-45.75"/>
<text text-anchor="start" x="1948.75" y="-77.45" font-family="Times New Roman,serif" font-size="14.00">Plot</text>
<polyline fill="none" stroke="#99ddff" points="1762.62,-70.25 2156.62,-70.25"/>
<polyline fill="none" stroke="#99ddff" points="1762.62,-70.25 2156.62,-70.25"/>
<text text-anchor="start" x="1770.62" y="-52.95" font-family="Times New Roman,serif" font-size="14.00">layout(ax: plt.Axes, title: str, boundary: Figure, figure: Figure): None</text>
</g>
<!-- src.base.shape.Polygon -->
<g id="node15" class="node">
<title>src.base.shape.Polygon</title>
<polygon fill="#99ddff" stroke="#99ddff" points="313.38,-210 313.38,-300 537.88,-300 537.88,-210 313.38,-210"/>
<text text-anchor="start" x="403.12" y="-282.7" font-family="Times New Roman,serif" font-size="14.00">Polygon</text>
<polyline fill="none" stroke="#99ddff" points="313.38,-275.5 537.88,-275.5"/>
<text text-anchor="start" x="422.25" y="-258.2" font-family="Times New Roman,serif" font-size="14.00">x</text>
<text text-anchor="start" x="422.25" y="-241.7" font-family="Times New Roman,serif" font-size="14.00">y</text>
<polyline fill="none" stroke="#99ddff" points="313.38,-234.5 537.88,-234.5"/>
<text text-anchor="start" x="321.38" y="-217.2" font-family="Times New Roman,serif" font-size="14.00">interpolate(translation: float): Polygon</text>
</g>
<!-- src.base.shape.Polygon&#45;&gt;src.base.shape.Shape -->
<g id="edge4" class="edge">
<title>src.base.shape.Polygon&#45;&gt;src.base.shape.Shape</title>
<path fill="none" stroke="black" d="M384.62,-300.4C335.37,-353.71 253.97,-441.84 210.38,-489.04"/>
<polygon fill="none" stroke="black" points="207.93,-486.53 203.72,-496.25 213.07,-491.28 207.93,-486.53"/>
</g>
<!-- src.base.shape.Rectangle&#45;&gt;src.base.shape.Shape -->
<g id="edge5" class="edge">
<title>src.base.shape.Rectangle&#45;&gt;src.base.shape.Shape</title>
<path fill="none" stroke="black" d="M253.53,-279.54C239.39,-326.41 207.66,-431.62 191.11,-486.48"/>
<polygon fill="none" stroke="black" points="187.8,-485.35 188.26,-495.93 194.5,-487.37 187.8,-485.35"/>
</g>
<!-- src.base.model.SequentialModel -->
<g id="node17" class="node">
<title>src.base.model.SequentialModel</title>
<polygon fill="#99ddff" stroke="#99ddff" points="893.75,-872.5 893.75,-999.5 1069.5,-999.5 1069.5,-872.5 893.75,-872.5"/>
<text text-anchor="start" x="935.12" y="-982.2" font-family="Times New Roman,serif" font-size="14.00">SequentialModel</text>
<polyline fill="none" stroke="#99ddff" points="893.75,-975 1069.5,-975"/>
<text text-anchor="start" x="962.88" y="-957.7" font-family="Times New Roman,serif" font-size="14.00">history</text>
<polyline fill="none" stroke="#99ddff" points="893.75,-950.5 1069.5,-950.5"/>
<text text-anchor="start" x="901.75" y="-934.2" font-family="Times New Roman,serif" font-size="14.00">eval(): None</text>
<text text-anchor="start" x="901.75" y="-920.2" font-family="Times New Roman,serif" font-size="14.00">load(path: Path): None</text>
<text text-anchor="start" x="901.75" y="-906.2" font-family="Times New Roman,serif" font-style="italic" font-size="14.00">predict</text>
<text text-anchor="start" x="940" y="-906.2" font-family="Times New Roman,serif" font-size="14.00">(sample: ...): tuple[...]</text>
<text text-anchor="start" x="901.75" y="-892.2" font-family="Times New Roman,serif" font-size="14.00">save(path: Path): None</text>
<text text-anchor="start" x="901.75" y="-878.2" font-family="Times New Roman,serif" font-style="italic" font-size="14.00">train</text>
<text text-anchor="start" x="928" y="-878.2" font-family="Times New Roman,serif" font-size="14.00">(callback: ...): None</text>
</g>
<!-- src.nse.simulation.Simulation&#45;&gt;src.base.model.SequentialModel -->
<g id="edge11" class="edge">
<title>src.nse.simulation.Simulation&#45;&gt;src.base.model.SequentialModel</title>
<path fill="none" stroke="black" d="M981.62,-834.82C981.62,-843.16 981.62,-851.92 981.62,-860.65"/>
<polygon fill="none" stroke="black" points="978.13,-860.55 981.63,-870.55 985.13,-860.55 978.13,-860.55"/>
</g>
<!-- src.nse.experiments.step.Step -->
<g id="node20" class="node">
<title>src.nse.experiments.step.Step</title>
<polygon fill="#bbcc33" stroke="#bbcc33" points="1177.62,-230.5 1177.62,-279.5 1231.62,-279.5 1231.62,-230.5 1177.62,-230.5"/>
<text text-anchor="start" x="1192.62" y="-262.2" font-family="Times New Roman,serif" font-size="14.00">Step</text>
<polyline fill="none" stroke="#bbcc33" points="1177.62,-255 1231.62,-255"/>
<polyline fill="none" stroke="#bbcc33" points="1177.62,-255 1231.62,-255"/>
<text text-anchor="start" x="1202.75" y="-237.7" font-family="Times New Roman,serif" font-size="14.00"> </text>
</g>
<!-- src.nse.experiments.step.Step&#45;&gt;src.nse.experiments.experiment.NSEExperiment -->
<g id="edge9" class="edge">
<title>src.nse.experiments.step.Step&#45;&gt;src.nse.experiments.experiment.NSEExperiment</title>
<path fill="none" stroke="black" d="M1192.05,-279.9C1185.58,-291.47 1177.26,-305.34 1168.62,-317 1130.3,-368.77 1080.88,-422.29 1042.46,-461.55"/>
<polygon fill="none" stroke="black" points="1040.02,-459.05 1035.5,-468.63 1045.01,-463.96 1040.02,-459.05"/>
</g>
<!-- src.utils.timer.Stopwatch -->
<g id="node21" class="node">
<title>src.utils.timer.Stopwatch</title>
<polygon fill="#aaaa00" stroke="#aaaa00" points="2174.75,-25.25 2174.75,-115.25 2272.5,-115.25 2272.5,-25.25 2174.75,-25.25"/>
<text text-anchor="start" x="2195.12" y="-97.95" font-family="Times New Roman,serif" font-size="14.00">Stopwatch</text>
<polyline fill="none" stroke="#aaaa00" points="2174.75,-90.75 2272.5,-90.75"/>
<text text-anchor="start" x="2182.75" y="-73.45" font-family="Times New Roman,serif" font-size="14.00">callback</text>
<text text-anchor="start" x="2182.75" y="-56.95" font-family="Times New Roman,serif" font-size="14.00">start : datetime</text>
<polyline fill="none" stroke="#aaaa00" points="2174.75,-49.75 2272.5,-49.75"/>
<text text-anchor="start" x="2186.88" y="-32.45" font-family="Times New Roman,serif" font-size="14.00">close(): None</text>
</g>
<!-- src.nse.experiments.wing.Wing -->
<g id="node22" class="node">
<title>src.nse.experiments.wing.Wing</title>
<polygon fill="#bbcc33" stroke="#bbcc33" points="1249.62,-230.5 1249.62,-279.5 1303.62,-279.5 1303.62,-230.5 1249.62,-230.5"/>
<text text-anchor="start" x="1261.62" y="-262.2" font-family="Times New Roman,serif" font-size="14.00">Wing</text>
<polyline fill="none" stroke="#bbcc33" points="1249.62,-255 1303.62,-255"/>
<polyline fill="none" stroke="#bbcc33" points="1249.62,-255 1303.62,-255"/>
<text text-anchor="start" x="1274.75" y="-237.7" font-family="Times New Roman,serif" font-size="14.00"> </text>
</g>
<!-- src.nse.experiments.wing.Wing&#45;&gt;src.nse.experiments.experiment.NSEExperiment -->
<g id="edge10" class="edge">
<title>src.nse.experiments.wing.Wing&#45;&gt;src.nse.experiments.experiment.NSEExperiment</title>
<path fill="none" stroke="black" d="M1265.16,-279.95C1258.85,-291.79 1250.33,-305.89 1240.62,-317 1182.39,-383.65 1100.07,-444.27 1043.97,-481.85"/>
<polygon fill="none" stroke="black" points="1042.16,-478.85 1035.76,-487.3 1046.03,-484.68 1042.16,-478.85"/>
</g>
</g>
</svg>
