<?xml version="1.0" encoding="UTF-8" standalone="no"?>
<!DOCTYPE svg PUBLIC "-//W3C//DTD SVG 1.1//EN"
 "http://www.w3.org/Graphics/SVG/1.1/DTD/svg11.dtd">
<!-- Generated by graphviz version 12.1.1 (20240910.0053)
 -->
<!-- Title: packages Pages: 1 -->
<svg width="2662pt" height="548pt"
 viewBox="0.00 0.00 2661.62 548.00" xmlns="http://www.w3.org/2000/svg" xmlns:xlink="http://www.w3.org/1999/xlink">
<g id="graph0" class="graph" transform="scale(1 1) rotate(0) translate(4 544)">
<title>packages</title>
<polygon fill="white" stroke="none" points="-4,4 -4,-544 2657.62,-544 2657.62,4 -4,4"/>
<!-- src -->
<g id="node1" class="node">
<title>src</title>
<polygon fill="#77aadd" stroke="#77aadd" points="1978.25,-324 1924.25,-324 1924.25,-288 1978.25,-288 1978.25,-324"/>
<text text-anchor="middle" x="1951.25" y="-300.95" font-family="Times New Roman,serif" font-size="14.00">src</text>
</g>
<!-- src.base -->
<g id="node2" class="node">
<title>src.base</title>
<polygon fill="#99ddff" stroke="#99ddff" points="1853,-36 1793.5,-36 1793.5,0 1853,0 1853,-36"/>
<text text-anchor="middle" x="1823.25" y="-12.95" font-family="Times New Roman,serif" font-size="14.00">src.base</text>
</g>
<!-- src.base.controller -->
<g id="node3" class="node">
<title>src.base.controller</title>
<polygon fill="#99ddff" stroke="#99ddff" points="1987.12,-36 1871.38,-36 1871.38,0 1987.12,0 1987.12,-36"/>
<text text-anchor="middle" x="1929.25" y="-12.95" font-family="Times New Roman,serif" font-size="14.00">src.base.controller</text>
</g>
<!-- src.base.controller.network -->
<g id="node4" class="node">
<title>src.base.controller.network</title>
<polygon fill="#99ddff" stroke="#99ddff" points="1905.75,-324 1742.75,-324 1742.75,-288 1905.75,-288 1905.75,-324"/>
<text text-anchor="middle" x="1824.25" y="-300.95" font-family="Times New Roman,serif" font-size="14.00">src.base.controller.network</text>
</g>
<!-- src.base.model.mesh -->
<g id="node8" class="node">
<title>src.base.model.mesh</title>
<polygon fill="#99ddff" stroke="#99ddff" points="1151.62,-468 1020.88,-468 1020.88,-432 1151.62,-432 1151.62,-468"/>
<text text-anchor="middle" x="1086.25" y="-444.95" font-family="Times New Roman,serif" font-size="14.00">src.base.model.mesh</text>
</g>
<!-- src.base.controller.network&#45;&gt;src.base.model.mesh -->
<g id="edge1" class="edge">
<title>src.base.controller.network&#45;&gt;src.base.model.mesh</title>
<path fill="none" stroke="black" d="M1814.05,-324.35C1800.58,-345.43 1774.73,-380.17 1742.25,-396 1642.05,-444.83 1313.51,-450.02 1162.91,-449.72"/>
<polygon fill="black" stroke="black" points="1153.16,-449.69 1163.18,-445.22 1156.94,-449.7 1163.16,-449.72 1163.16,-449.72 1163.16,-449.72 1156.94,-449.7 1163.15,-454.22 1153.16,-449.69"/>
</g>
<!-- src.base.model -->
<g id="node5" class="node">
<title>src.base.model</title>
<polygon fill="#99ddff" stroke="#99ddff" points="2103.12,-36 2005.38,-36 2005.38,0 2103.12,0 2103.12,-36"/>
<text text-anchor="middle" x="2054.25" y="-12.95" font-family="Times New Roman,serif" font-size="14.00">src.base.model</text>
</g>
<!-- src.base.model.algebra -->
<g id="node6" class="node">
<title>src.base.model.algebra</title>
<polygon fill="#99ddff" stroke="#99ddff" points="1055.88,-540 914.62,-540 914.62,-504 1055.88,-504 1055.88,-540"/>
<text text-anchor="middle" x="985.25" y="-516.95" font-family="Times New Roman,serif" font-size="14.00">src.base.model.algebra</text>
</g>
<!-- src.base.model.function -->
<g id="node7" class="node">
<title>src.base.model.function</title>
<polygon fill="#99ddff" stroke="#99ddff" points="739.5,-396 593,-396 593,-360 739.5,-360 739.5,-396"/>
<text text-anchor="middle" x="666.25" y="-372.95" font-family="Times New Roman,serif" font-size="14.00">src.base.model.function</text>
</g>
<!-- src.base.model.mesh&#45;&gt;src.base.model.algebra -->
<g id="edge2" class="edge">
<title>src.base.model.mesh&#45;&gt;src.base.model.algebra</title>
<path fill="none" stroke="black" d="M1061.02,-468.48C1048.4,-477.24 1032.93,-487.96 1019.27,-497.42"/>
<polygon fill="black" stroke="black" points="1011.16,-503.05 1016.81,-493.65 1014.26,-500.89 1019.37,-497.35 1019.37,-497.35 1019.37,-497.35 1014.26,-500.89 1021.94,-501.05 1011.16,-503.05"/>
</g>
<!-- src.base.model.shape -->
<g id="node9" class="node">
<title>src.base.model.shape</title>
<polygon fill="#99ddff" stroke="#99ddff" points="966.38,-396 834.12,-396 834.12,-360 966.38,-360 966.38,-396"/>
<text text-anchor="middle" x="900.25" y="-372.95" font-family="Times New Roman,serif" font-size="14.00">src.base.model.shape</text>
</g>
<!-- src.base.model.shape&#45;&gt;src.base.model.algebra -->
<g id="edge3" class="edge">
<title>src.base.model.shape&#45;&gt;src.base.model.algebra</title>
<path fill="none" stroke="black" d="M910.67,-396.41C925.35,-420.92 952.21,-465.81 969.38,-494.48"/>
<polygon fill="black" stroke="black" points="974.38,-502.84 965.38,-496.57 972.44,-499.6 969.25,-494.26 969.25,-494.26 969.25,-494.26 972.44,-499.6 973.11,-491.95 974.38,-502.84"/>
</g>
<!-- src.base.model.shape&#45;&gt;src.base.model.mesh -->
<g id="edge4" class="edge">
<title>src.base.model.shape&#45;&gt;src.base.model.mesh</title>
<path fill="none" stroke="black" d="M946.71,-396.48C971.88,-405.96 1003.18,-417.74 1029.76,-427.74"/>
<polygon fill="black" stroke="black" points="1038.92,-431.19 1027.98,-431.88 1035.38,-429.86 1029.56,-427.67 1029.56,-427.67 1029.56,-427.67 1035.38,-429.86 1031.15,-423.46 1038.92,-431.19"/>
</g>
<!-- src.base.view -->
<g id="node10" class="node">
<title>src.base.view</title>
<polygon fill="#99ddff" stroke="#99ddff" points="1700,-396 1610.5,-396 1610.5,-360 1700,-360 1700,-396"/>
<text text-anchor="middle" x="1655.25" y="-372.95" font-family="Times New Roman,serif" font-size="14.00">src.base.view</text>
</g>
<!-- src.base.view.plot -->
<g id="node11" class="node">
<title>src.base.view.plot</title>
<polygon fill="#99ddff" stroke="#99ddff" points="1686,-324 1572.5,-324 1572.5,-288 1686,-288 1686,-324"/>
<text text-anchor="middle" x="1629.25" y="-300.95" font-family="Times New Roman,serif" font-size="14.00">src.base.view.plot</text>
</g>
<!-- src.base.view.plot&#45;&gt;src.base.model.mesh -->
<g id="edge5" class="edge">
<title>src.base.view.plot&#45;&gt;src.base.model.mesh</title>
<path fill="none" stroke="black" d="M1620.95,-324.15C1609.83,-345.04 1588.01,-379.56 1558.25,-396 1492.08,-432.55 1278.61,-443.93 1162.75,-447.45"/>
<polygon fill="black" stroke="black" points="1153.07,-447.73 1162.94,-442.94 1156.85,-447.62 1163.07,-447.44 1163.07,-447.44 1163.07,-447.44 1156.85,-447.62 1163.2,-451.94 1153.07,-447.73"/>
</g>
<!-- src.base.view.plot&#45;&gt;src.base.model.shape -->
<g id="edge6" class="edge">
<title>src.base.view.plot&#45;&gt;src.base.model.shape</title>
<path fill="none" stroke="black" d="M1572.05,-312.49C1442.26,-324.96 1125.34,-355.39 977.97,-369.54"/>
<polygon fill="black" stroke="black" points="968.01,-370.49 977.54,-365.06 971.78,-370.13 977.97,-369.54 977.97,-369.54 977.97,-369.54 971.78,-370.13 978.4,-374.02 968.01,-370.49"/>
</g>
<!-- src.base.view.plot&#45;&gt;src.base.view -->
<g id="edge7" class="edge">
<title>src.base.view.plot&#45;&gt;src.base.view</title>
<path fill="none" stroke="black" d="M1635.68,-324.3C1638.51,-331.93 1641.91,-341.08 1645.07,-349.6"/>
<polygon fill="black" stroke="black" points="1648.47,-358.75 1640.77,-350.95 1647.16,-355.21 1644.99,-349.38 1644.99,-349.38 1644.99,-349.38 1647.16,-355.21 1649.21,-347.81 1648.47,-358.75"/>
</g>
<!-- src.nse -->
<g id="node12" class="node">
<title>src.nse</title>
<polygon fill="#44bb99" stroke="#44bb99" points="1318.25,-108 1264.25,-108 1264.25,-72 1318.25,-72 1318.25,-108"/>
<text text-anchor="middle" x="1291.25" y="-84.95" font-family="Times New Roman,serif" font-size="14.00">src.nse</text>
</g>
<!-- src.nse.__main__ -->
<g id="node13" class="node">
<title>src.nse.__main__</title>
<polygon fill="#44bb99" stroke="#44bb99" points="1775.25,-36 1663.25,-36 1663.25,0 1775.25,0 1775.25,-36"/>
<text text-anchor="middle" x="1719.25" y="-12.95" font-family="Times New Roman,serif" font-size="14.00">src.nse.__main__</text>
</g>
<!-- src.nse.__main__&#45;&gt;src -->
<g id="edge8" class="edge">
<title>src.nse.__main__&#45;&gt;src</title>
<path fill="none" stroke="black" d="M1733.41,-36.46C1772.82,-85.04 1883.9,-221.98 1930.39,-279.28"/>
<polygon fill="black" stroke="black" points="1936.5,-286.82 1926.71,-281.89 1934.12,-283.89 1930.2,-279.06 1930.2,-279.06 1930.2,-279.06 1934.12,-283.89 1933.7,-276.22 1936.5,-286.82"/>
</g>
<!-- src.nse.__main__&#45;&gt;src.nse -->
<g id="edge9" class="edge">
<title>src.nse.__main__&#45;&gt;src.nse</title>
<path fill="none" stroke="black" d="M1662.92,-22.17C1586.77,-27.48 1447.29,-40.83 1332.25,-72 1331.27,-72.26 1330.29,-72.55 1329.3,-72.84"/>
<polygon fill="black" stroke="black" points="1319.85,-76.09 1327.85,-68.59 1323.43,-74.86 1329.31,-72.84 1329.31,-72.84 1329.31,-72.84 1323.43,-74.86 1330.77,-77.1 1319.85,-76.09"/>
</g>
<!-- src.nse.controller.simulation -->
<g id="node15" class="node">
<title>src.nse.controller.simulation</title>
<polygon fill="#44bb99" stroke="#44bb99" points="1804.5,-252 1634,-252 1634,-216 1804.5,-216 1804.5,-252"/>
<text text-anchor="middle" x="1719.25" y="-228.95" font-family="Times New Roman,serif" font-size="14.00">src.nse.controller.simulation</text>
</g>
<!-- src.nse.__main__&#45;&gt;src.nse.controller.simulation -->
<g id="edge10" class="edge">
<title>src.nse.__main__&#45;&gt;src.nse.controller.simulation</title>
<path fill="none" stroke="black" d="M1720.96,-36.4C1723.64,-65.94 1728.2,-127.78 1725.25,-180 1724.79,-188.08 1723.95,-196.81 1723.04,-204.81"/>
<polygon fill="black" stroke="black" points="1721.83,-214.65 1718.58,-204.17 1722.29,-210.89 1723.05,-204.72 1723.05,-204.72 1723.05,-204.72 1722.29,-210.89 1727.52,-205.27 1721.83,-214.65"/>
</g>
<!-- src.nse.model.experiments -->
<g id="node17" class="node">
<title>src.nse.model.experiments</title>
<polygon fill="#44bb99" stroke="#44bb99" points="955.38,-108 793.12,-108 793.12,-72 955.38,-72 955.38,-108"/>
<text text-anchor="middle" x="874.25" y="-84.95" font-family="Times New Roman,serif" font-size="14.00">src.nse.model.experiments</text>
</g>
<!-- src.nse.__main__&#45;&gt;src.nse.model.experiments -->
<g id="edge11" class="edge">
<title>src.nse.__main__&#45;&gt;src.nse.model.experiments</title>
<path fill="none" stroke="black" d="M1662.82,-23.67C1519.91,-35.51 1142.6,-66.77 966.82,-81.33"/>
<polygon fill="black" stroke="black" points="957,-82.14 966.6,-76.83 960.77,-81.83 966.97,-81.32 966.97,-81.32 966.97,-81.32 960.77,-81.83 967.34,-85.8 957,-82.14"/>
</g>
<!-- src.nse.model.experiments.experiment -->
<g id="node21" class="node">
<title>src.nse.model.experiments.experiment</title>
<polygon fill="#44bb99" stroke="#44bb99" points="1326,-324 1098.5,-324 1098.5,-288 1326,-288 1326,-324"/>
<text text-anchor="middle" x="1212.25" y="-300.95" font-family="Times New Roman,serif" font-size="14.00">src.nse.model.experiments.experiment</text>
</g>
<!-- src.nse.__main__&#45;&gt;src.nse.model.experiments.experiment -->
<g id="edge12" class="edge">
<title>src.nse.__main__&#45;&gt;src.nse.model.experiments.experiment</title>
<path fill="none" stroke="black" d="M1662.89,-30.33C1589.84,-46.86 1460.54,-82.51 1365.25,-144 1349.98,-153.85 1274.23,-236.5 1235.36,-279.39"/>
<polygon fill="black" stroke="black" points="1228.7,-286.74 1232.07,-276.31 1231.24,-283.94 1235.41,-279.33 1235.41,-279.33 1235.41,-279.33 1231.24,-283.94 1238.75,-282.35 1228.7,-286.74"/>
</g>
<!-- src.nse.view.grading -->
<g id="node30" class="node">
<title>src.nse.view.grading</title>
<polygon fill="#44bb99" stroke="#44bb99" points="2064.12,-180 1936.38,-180 1936.38,-144 2064.12,-144 2064.12,-180"/>
<text text-anchor="middle" x="2000.25" y="-156.95" font-family="Times New Roman,serif" font-size="14.00">src.nse.view.grading</text>
</g>
<!-- src.nse.__main__&#45;&gt;src.nse.view.grading -->
<g id="edge13" class="edge">
<title>src.nse.__main__&#45;&gt;src.nse.view.grading</title>
<path fill="none" stroke="black" d="M1775.62,-33.75C1778.54,-34.51 1781.43,-35.26 1784.25,-36 1845.58,-52.02 1868.32,-38.7 1922.25,-72 1947.79,-87.77 1969.58,-114.53 1983.59,-134.59"/>
<polygon fill="black" stroke="black" points="1989.14,-142.82 1979.81,-137.05 1987.02,-139.68 1983.54,-134.53 1983.54,-134.53 1983.54,-134.53 1987.02,-139.68 1987.27,-132.01 1989.14,-142.82"/>
</g>
<!-- src.nse.view.prediction -->
<g id="node31" class="node">
<title>src.nse.view.prediction</title>
<polygon fill="#44bb99" stroke="#44bb99" points="1715.88,-180 1574.62,-180 1574.62,-144 1715.88,-144 1715.88,-180"/>
<text text-anchor="middle" x="1645.25" y="-156.95" font-family="Times New Roman,serif" font-size="14.00">src.nse.view.prediction</text>
</g>
<!-- src.nse.__main__&#45;&gt;src.nse.view.prediction -->
<g id="edge14" class="edge">
<title>src.nse.__main__&#45;&gt;src.nse.view.prediction</title>
<path fill="none" stroke="black" d="M1710.18,-36.41C1697.46,-60.82 1674.22,-105.42 1659.27,-134.11"/>
<polygon fill="black" stroke="black" points="1654.73,-142.81 1655.36,-131.86 1656.48,-139.46 1659.35,-133.94 1659.35,-133.94 1659.35,-133.94 1656.48,-139.46 1663.34,-136.02 1654.73,-142.81"/>
</g>
<!-- src.utils.timer -->
<g id="node33" class="node">
<title>src.utils.timer</title>
<polygon fill="#bbcc33" stroke="#bbcc33" points="2202.12,-252 2110.38,-252 2110.38,-216 2202.12,-216 2202.12,-252"/>
<text text-anchor="middle" x="2156.25" y="-228.95" font-family="Times New Roman,serif" font-size="14.00">src.utils.timer</text>
</g>
<!-- src.nse.__main__&#45;&gt;src.utils.timer -->
<g id="edge15" class="edge">
<title>src.nse.__main__&#45;&gt;src.utils.timer</title>
<path fill="none" stroke="black" d="M1775.58,-33.91C1778.51,-34.63 1781.41,-35.33 1784.25,-36 1859.84,-53.83 1883.06,-43.36 1955.25,-72 2012.36,-94.66 2025.64,-105.18 2073.25,-144 2096.57,-163.02 2119.64,-188.43 2135.51,-207.23"/>
<polygon fill="black" stroke="black" points="2141.71,-214.67 2131.85,-209.86 2139.29,-211.76 2135.31,-206.98 2135.31,-206.98 2135.31,-206.98 2139.29,-211.76 2138.77,-204.11 2141.71,-214.67"/>
</g>
<!-- src.nse.controller -->
<g id="node14" class="node">
<title>src.nse.controller</title>
<polygon fill="#44bb99" stroke="#44bb99" points="2231.12,-36 2121.38,-36 2121.38,0 2231.12,0 2231.12,-36"/>
<text text-anchor="middle" x="2176.25" y="-12.95" font-family="Times New Roman,serif" font-size="14.00">src.nse.controller</text>
</g>
<!-- src.nse.controller.simulation&#45;&gt;src.base.controller.network -->
<g id="edge16" class="edge">
<title>src.nse.controller.simulation&#45;&gt;src.base.controller.network</title>
<path fill="none" stroke="black" d="M1745.48,-252.48C1758.73,-261.32 1774.99,-272.16 1789.3,-281.7"/>
<polygon fill="black" stroke="black" points="1797.35,-287.06 1786.53,-285.26 1794.2,-284.97 1789.02,-281.52 1789.02,-281.52 1789.02,-281.52 1794.2,-284.97 1791.52,-277.77 1797.35,-287.06"/>
</g>
<!-- src.nse.controller.simulation&#45;&gt;src.base.model.mesh -->
<g id="edge17" class="edge">
<title>src.nse.controller.simulation&#45;&gt;src.base.model.mesh</title>
<path fill="none" stroke="black" d="M1720.88,-252.43C1723.97,-289.84 1728.73,-376.07 1709.25,-396 1671.78,-434.33 1321.29,-445.06 1163.09,-447.97"/>
<polygon fill="black" stroke="black" points="1153.25,-448.14 1163.17,-443.46 1157.03,-448.07 1163.25,-447.96 1163.25,-447.96 1163.25,-447.96 1157.03,-448.07 1163.33,-452.46 1153.25,-448.14"/>
</g>
<!-- src.nse.controller.simulation&#45;&gt;src.nse.model.experiments.experiment -->
<g id="edge18" class="edge">
<title>src.nse.controller.simulation&#45;&gt;src.nse.model.experiments.experiment</title>
<path fill="none" stroke="black" d="M1633.53,-246.83C1552.4,-258.04 1429.66,-274.98 1337.56,-287.7"/>
<polygon fill="black" stroke="black" points="1327.69,-289.06 1336.98,-283.24 1331.44,-288.54 1337.6,-287.69 1337.6,-287.69 1337.6,-287.69 1331.44,-288.54 1338.21,-292.15 1327.69,-289.06"/>
</g>
<!-- src.nse.model.record -->
<g id="node28" class="node">
<title>src.nse.model.record</title>
<polygon fill="#44bb99" stroke="#44bb99" points="1478.25,-396 1348.25,-396 1348.25,-360 1478.25,-360 1478.25,-396"/>
<text text-anchor="middle" x="1413.25" y="-372.95" font-family="Times New Roman,serif" font-size="14.00">src.nse.model.record</text>
</g>
<!-- src.nse.controller.simulation&#45;&gt;src.nse.model.record -->
<g id="edge19" class="edge">
<title>src.nse.controller.simulation&#45;&gt;src.nse.model.record</title>
<path fill="none" stroke="black" d="M1658.48,-252.41C1629.15,-261.62 1593.78,-273.94 1563.25,-288 1522.05,-306.97 1477.71,-334.21 1448.01,-353.55"/>
<polygon fill="black" stroke="black" points="1439.92,-358.86 1445.81,-349.61 1443.08,-356.78 1448.28,-353.37 1448.28,-353.37 1448.28,-353.37 1443.08,-356.78 1450.75,-357.13 1439.92,-358.86"/>
</g>
<!-- src.nse.model -->
<g id="node16" class="node">
<title>src.nse.model</title>
<polygon fill="#44bb99" stroke="#44bb99" points="2341.12,-36 2249.38,-36 2249.38,0 2341.12,0 2341.12,-36"/>
<text text-anchor="middle" x="2295.25" y="-12.95" font-family="Times New Roman,serif" font-size="14.00">src.nse.model</text>
</g>
<!-- src.nse.model.experiments.block -->
<g id="node18" class="node">
<title>src.nse.model.experiments.block</title>
<polygon fill="#44bb99" stroke="#44bb99" points="1318.25,-180 1122.25,-180 1122.25,-144 1318.25,-144 1318.25,-180"/>
<text text-anchor="middle" x="1220.25" y="-156.95" font-family="Times New Roman,serif" font-size="14.00">src.nse.model.experiments.block</text>
</g>
<!-- src.nse.model.experiments&#45;&gt;src.nse.model.experiments.block -->
<g id="edge20" class="edge">
<title>src.nse.model.experiments&#45;&gt;src.nse.model.experiments.block</title>
<path fill="none" stroke="black" d="M955.81,-107.5C1005.9,-117.63 1070.35,-130.67 1123.08,-141.34"/>
<polygon fill="black" stroke="black" points="1132.61,-143.27 1121.91,-145.7 1128.9,-142.52 1122.81,-141.29 1122.81,-141.29 1122.81,-141.29 1128.9,-142.52 1123.7,-136.87 1132.61,-143.27"/>
</g>
<!-- src.nse.model.experiments.cylinder -->
<g id="node19" class="node">
<title>src.nse.model.experiments.cylinder</title>
<polygon fill="#44bb99" stroke="#44bb99" points="634.38,-180 424.12,-180 424.12,-144 634.38,-144 634.38,-180"/>
<text text-anchor="middle" x="529.25" y="-156.95" font-family="Times New Roman,serif" font-size="14.00">src.nse.model.experiments.cylinder</text>
</g>
<!-- src.nse.model.experiments&#45;&gt;src.nse.model.experiments.cylinder -->
<g id="edge21" class="edge">
<title>src.nse.model.experiments&#45;&gt;src.nse.model.experiments.cylinder</title>
<path fill="none" stroke="black" d="M792.93,-107.5C742.98,-117.63 678.72,-130.67 626.14,-141.34"/>
<polygon fill="black" stroke="black" points="616.64,-143.27 625.55,-136.87 620.35,-142.52 626.44,-141.28 626.44,-141.28 626.44,-141.28 620.35,-142.52 627.34,-145.69 616.64,-143.27"/>
</g>
<!-- src.nse.model.experiments.empty -->
<g id="node20" class="node">
<title>src.nse.model.experiments.empty</title>
<polygon fill="#44bb99" stroke="#44bb99" points="200.5,-180 0,-180 0,-144 200.5,-144 200.5,-180"/>
<text text-anchor="middle" x="100.25" y="-156.95" font-family="Times New Roman,serif" font-size="14.00">src.nse.model.experiments.empty</text>
</g>
<!-- src.nse.model.experiments&#45;&gt;src.nse.model.experiments.empty -->
<g id="edge22" class="edge">
<title>src.nse.model.experiments&#45;&gt;src.nse.model.experiments.empty</title>
<path fill="none" stroke="black" d="M792.67,-95.52C669.16,-102.8 427.09,-118.79 211.76,-143.75"/>
<polygon fill="black" stroke="black" points="202.09,-144.88 211.5,-139.25 205.84,-144.44 212.02,-143.72 212.02,-143.72 212.02,-143.72 205.84,-144.44 212.54,-148.19 202.09,-144.88"/>
</g>
<!-- src.nse.model.experiments.slalom -->
<g id="node23" class="node">
<title>src.nse.model.experiments.slalom</title>
<polygon fill="#44bb99" stroke="#44bb99" points="1104.62,-180 901.88,-180 901.88,-144 1104.62,-144 1104.62,-180"/>
<text text-anchor="middle" x="1003.25" y="-156.95" font-family="Times New Roman,serif" font-size="14.00">src.nse.model.experiments.slalom</text>
</g>
<!-- src.nse.model.experiments&#45;&gt;src.nse.model.experiments.slalom -->
<g id="edge23" class="edge">
<title>src.nse.model.experiments&#45;&gt;src.nse.model.experiments.slalom</title>
<path fill="none" stroke="black" d="M906.47,-108.48C923.22,-117.57 943.88,-128.78 961.81,-138.51"/>
<polygon fill="black" stroke="black" points="970.37,-143.16 959.43,-142.34 967.05,-141.35 961.58,-138.39 961.58,-138.39 961.58,-138.39 967.05,-141.35 963.73,-134.43 970.37,-143.16"/>
</g>
<!-- src.nse.model.experiments.slit -->
<g id="node24" class="node">
<title>src.nse.model.experiments.slit</title>
<polygon fill="#44bb99" stroke="#44bb99" points="1556.5,-180 1374,-180 1374,-144 1556.5,-144 1556.5,-180"/>
<text text-anchor="middle" x="1465.25" y="-156.95" font-family="Times New Roman,serif" font-size="14.00">src.nse.model.experiments.slit</text>
</g>
<!-- src.nse.model.experiments&#45;&gt;src.nse.model.experiments.slit -->
<g id="edge24" class="edge">
<title>src.nse.model.experiments&#45;&gt;src.nse.model.experiments.slit</title>
<path fill="none" stroke="black" d="M955.69,-100.38C1046.39,-110.85 1197.33,-128.4 1327.25,-144 1338.72,-145.38 1350.72,-146.83 1362.66,-148.29"/>
<polygon fill="black" stroke="black" points="1372.38,-149.48 1361.9,-152.73 1368.62,-149.02 1362.45,-148.27 1362.45,-148.27 1362.45,-148.27 1368.62,-149.02 1363,-143.8 1372.38,-149.48"/>
</g>
<!-- src.nse.model.experiments.step -->
<g id="node25" class="node">
<title>src.nse.model.experiments.step</title>
<polygon fill="#44bb99" stroke="#44bb99" points="406.12,-180 218.38,-180 218.38,-144 406.12,-144 406.12,-180"/>
<text text-anchor="middle" x="312.25" y="-156.95" font-family="Times New Roman,serif" font-size="14.00">src.nse.model.experiments.step</text>
</g>
<!-- src.nse.model.experiments&#45;&gt;src.nse.model.experiments.step -->
<g id="edge25" class="edge">
<title>src.nse.model.experiments&#45;&gt;src.nse.model.experiments.step</title>
<path fill="none" stroke="black" d="M792.84,-99.19C703.3,-108.48 554.89,-124.67 417.26,-143.75"/>
<polygon fill="black" stroke="black" points="407.73,-145.08 417.01,-139.25 411.47,-144.56 417.63,-143.7 417.63,-143.7 417.63,-143.7 411.47,-144.56 418.25,-148.16 407.73,-145.08"/>
</g>
<!-- src.nse.model.experiments.wing -->
<g id="node26" class="node">
<title>src.nse.model.experiments.wing</title>
<polygon fill="#44bb99" stroke="#44bb99" points="845.75,-180 652.75,-180 652.75,-144 845.75,-144 845.75,-180"/>
<text text-anchor="middle" x="749.25" y="-156.95" font-family="Times New Roman,serif" font-size="14.00">src.nse.model.experiments.wing</text>
</g>
<!-- src.nse.model.experiments&#45;&gt;src.nse.model.experiments.wing -->
<g id="edge26" class="edge">
<title>src.nse.model.experiments&#45;&gt;src.nse.model.experiments.wing</title>
<path fill="none" stroke="black" d="M843.03,-108.48C826.8,-117.57 806.78,-128.78 789.41,-138.51"/>
<polygon fill="black" stroke="black" points="781.14,-143.14 787.66,-134.33 784.43,-141.3 789.86,-138.26 789.86,-138.26 789.86,-138.26 784.43,-141.3 792.06,-142.18 781.14,-143.14"/>
</g>
<!-- src.nse.model.experiments.block&#45;&gt;src.base.model.function -->
<g id="edge27" class="edge">
<title>src.nse.model.experiments.block&#45;&gt;src.base.model.function</title>
<path fill="none" stroke="black" d="M1175.38,-180.33C1074.82,-219.18 831.59,-313.13 721.74,-355.56"/>
<polygon fill="black" stroke="black" points="712.67,-359.07 720.38,-351.27 716.2,-357.71 722,-355.46 722,-355.46 722,-355.46 716.2,-357.71 723.62,-359.66 712.67,-359.07"/>
</g>
<!-- src.nse.model.experiments.block&#45;&gt;src.base.model.mesh -->
<g id="edge28" class="edge">
<title>src.nse.model.experiments.block&#45;&gt;src.base.model.mesh</title>
<path fill="none" stroke="black" d="M1248.87,-180.33C1292.89,-209.27 1368.8,-269.62 1335.25,-324 1297.83,-384.65 1221.01,-416.89 1162.54,-433.34"/>
<polygon fill="black" stroke="black" points="1153.02,-435.91 1161.5,-428.96 1156.67,-434.92 1162.67,-433.3 1162.67,-433.3 1162.67,-433.3 1156.67,-434.92 1163.85,-437.64 1153.02,-435.91"/>
</g>
<!-- src.nse.model.experiments.block&#45;&gt;src.base.model.shape -->
<g id="edge29" class="edge">
<title>src.nse.model.experiments.block&#45;&gt;src.base.model.shape</title>
<path fill="none" stroke="black" d="M1194.33,-180.33C1137.18,-218.55 1000.27,-310.11 935.43,-353.47"/>
<polygon fill="black" stroke="black" points="927.42,-358.83 933.23,-349.53 930.56,-356.73 935.73,-353.27 935.73,-353.27 935.73,-353.27 930.56,-356.73 938.23,-357.01 927.42,-358.83"/>
</g>
<!-- src.nse.model.experiments.block&#45;&gt;src.nse.model.experiments.experiment -->
<g id="edge30" class="edge">
<title>src.nse.model.experiments.block&#45;&gt;src.nse.model.experiments.experiment</title>
<path fill="none" stroke="black" d="M1219.27,-180.41C1217.91,-204.5 1215.45,-248.25 1213.83,-276.97"/>
<polygon fill="black" stroke="black" points="1213.28,-286.67 1209.35,-276.44 1213.5,-282.9 1213.85,-276.69 1213.85,-276.69 1213.85,-276.69 1213.5,-282.9 1218.34,-276.94 1213.28,-286.67"/>
</g>
<!-- src.nse.model.experiments.foam -->
<g id="node22" class="node">
<title>src.nse.model.experiments.foam</title>
<polygon fill="#44bb99" stroke="#44bb99" points="964.5,-252 770,-252 770,-216 964.5,-216 964.5,-252"/>
<text text-anchor="middle" x="867.25" y="-228.95" font-family="Times New Roman,serif" font-size="14.00">src.nse.model.experiments.foam</text>
</g>
<!-- src.nse.model.experiments.block&#45;&gt;src.nse.model.experiments.foam -->
<g id="edge31" class="edge">
<title>src.nse.model.experiments.block&#45;&gt;src.nse.model.experiments.foam</title>
<path fill="none" stroke="black" d="M1132.08,-180.48C1081.66,-190.48 1018.27,-203.05 966.15,-213.39"/>
<polygon fill="black" stroke="black" points="956.4,-215.32 965.34,-208.96 960.11,-214.59 966.21,-213.38 966.21,-213.38 966.21,-213.38 960.11,-214.59 967.09,-217.79 956.4,-215.32"/>
</g>
<!-- src.nse.model.experiments.cylinder&#45;&gt;src.base.model.function -->
<g id="edge32" class="edge">
<title>src.nse.model.experiments.cylinder&#45;&gt;src.base.model.function</title>
<path fill="none" stroke="black" d="M537.57,-180.46C546.48,-198.69 561.34,-227.94 576.25,-252 598.24,-287.47 626.87,-326.15 645.86,-350.94"/>
<polygon fill="black" stroke="black" points="651.9,-358.76 642.23,-353.59 649.59,-355.77 645.79,-350.84 645.79,-350.84 645.79,-350.84 649.59,-355.77 649.35,-348.1 651.9,-358.76"/>
</g>
<!-- src.nse.model.experiments.cylinder&#45;&gt;src.base.model.mesh -->
<g id="edge33" class="edge">
<title>src.nse.model.experiments.cylinder&#45;&gt;src.base.model.mesh</title>
<path fill="none" stroke="black" d="M525.23,-180.45C516.35,-223.96 500.31,-337.94 560.25,-396 591.86,-426.62 871.38,-441.11 1009.58,-446.45"/>
<polygon fill="black" stroke="black" points="1019.27,-446.82 1009.1,-450.93 1015.49,-446.67 1009.27,-446.44 1009.27,-446.44 1009.27,-446.44 1015.49,-446.67 1009.45,-441.94 1019.27,-446.82"/>
</g>
<!-- src.nse.model.experiments.cylinder&#45;&gt;src.base.model.shape -->
<g id="edge34" class="edge">
<title>src.nse.model.experiments.cylinder&#45;&gt;src.base.model.shape</title>
<path fill="none" stroke="black" d="M550.25,-180.49C573.28,-199.28 611.71,-229.47 647.25,-252 705.34,-288.83 722.5,-293.7 784.25,-324 805.76,-334.56 829.81,-345.66 850.42,-354.96"/>
<polygon fill="black" stroke="black" points="859.42,-359.01 848.46,-359.01 855.97,-357.46 850.3,-354.91 850.3,-354.91 850.3,-354.91 855.97,-357.46 852.15,-350.8 859.42,-359.01"/>
</g>
<!-- src.nse.model.experiments.cylinder&#45;&gt;src.nse.model.experiments.experiment -->
<g id="edge35" class="edge">
<title>src.nse.model.experiments.cylinder&#45;&gt;src.nse.model.experiments.experiment</title>
<path fill="none" stroke="black" d="M566.1,-180.44C611.1,-200.96 690.04,-234.45 761.25,-252 869.56,-278.69 995.92,-292.07 1087.29,-298.7"/>
<polygon fill="black" stroke="black" points="1097.04,-299.39 1086.75,-303.17 1093.27,-299.12 1087.07,-298.68 1087.07,-298.68 1087.07,-298.68 1093.27,-299.12 1087.38,-294.19 1097.04,-299.39"/>
</g>
<!-- src.nse.model.experiments.cylinder&#45;&gt;src.nse.model.experiments.foam -->
<g id="edge36" class="edge">
<title>src.nse.model.experiments.cylinder&#45;&gt;src.nse.model.experiments.foam</title>
<path fill="none" stroke="black" d="M613.67,-180.48C661.85,-190.46 722.39,-203 772.24,-213.32"/>
<polygon fill="black" stroke="black" points="781.84,-215.31 771.13,-217.69 778.13,-214.54 772.04,-213.28 772.04,-213.28 772.04,-213.28 778.13,-214.54 772.96,-208.88 781.84,-215.31"/>
</g>
<!-- src.nse.model.experiments.empty&#45;&gt;src.base.model.function -->
<g id="edge37" class="edge">
<title>src.nse.model.experiments.empty&#45;&gt;src.base.model.function</title>
<path fill="none" stroke="black" d="M130.34,-180.33C164.17,-199.39 221.05,-230.21 272.25,-252 378.41,-297.19 506.64,-334.92 587.34,-356.74"/>
<polygon fill="black" stroke="black" points="596.73,-359.27 585.91,-361.02 593.08,-358.29 587.08,-356.67 587.08,-356.67 587.08,-356.67 593.08,-358.29 588.24,-352.33 596.73,-359.27"/>
</g>
<!-- src.nse.model.experiments.empty&#45;&gt;src.base.model.mesh -->
<g id="edge38" class="edge">
<title>src.nse.model.experiments.empty&#45;&gt;src.base.model.mesh</title>
<path fill="none" stroke="black" d="M115.46,-180.27C132.93,-199.41 163.07,-230.42 193.25,-252 306.44,-332.93 337.6,-357.29 471.25,-396 570.22,-424.67 867.5,-440.17 1009.33,-446.11"/>
<polygon fill="black" stroke="black" points="1019.29,-446.52 1009.11,-450.61 1015.51,-446.37 1009.3,-446.11 1009.3,-446.11 1009.3,-446.11 1015.51,-446.37 1009.48,-441.62 1019.29,-446.52"/>
</g>
<!-- src.nse.model.experiments.empty&#45;&gt;src.base.model.shape -->
<g id="edge39" class="edge">
<title>src.nse.model.experiments.empty&#45;&gt;src.base.model.shape</title>
<path fill="none" stroke="black" d="M159.66,-180.46C187.28,-189.53 220.15,-201.72 248.25,-216 273.63,-228.9 275.28,-240.32 301.25,-252 316.1,-258.67 569.32,-320.65 585.25,-324 665.92,-340.98 759.11,-356.11 823.09,-365.82"/>
<polygon fill="black" stroke="black" points="832.68,-367.26 822.13,-370.22 828.95,-366.7 822.8,-365.77 822.8,-365.77 822.8,-365.77 828.95,-366.7 823.47,-361.32 832.68,-367.26"/>
</g>
<!-- src.nse.model.experiments.empty&#45;&gt;src.nse.model.experiments.experiment -->
<g id="edge40" class="edge">
<title>src.nse.model.experiments.empty&#45;&gt;src.nse.model.experiments.experiment</title>
<path fill="none" stroke="black" d="M162.53,-180.48C238.36,-201.03 370.65,-234.56 486.25,-252 695.58,-283.58 941.81,-296.53 1087.02,-301.7"/>
<polygon fill="black" stroke="black" points="1096.94,-302.05 1086.79,-306.2 1093.16,-301.91 1086.95,-301.7 1086.95,-301.7 1086.95,-301.7 1093.16,-301.91 1087.11,-297.2 1096.94,-302.05"/>
</g>
<!-- src.nse.model.experiments.empty&#45;&gt;src.nse.model.experiments.foam -->
<g id="edge41" class="edge">
<title>src.nse.model.experiments.empty&#45;&gt;src.nse.model.experiments.foam</title>
<path fill="none" stroke="black" d="M200.88,-178.97C203.7,-179.33 206.49,-179.67 209.25,-180 402.09,-202.77 627.91,-218.62 758.58,-226.73"/>
<polygon fill="black" stroke="black" points="768.54,-227.34 758.28,-231.22 764.76,-227.11 758.56,-226.73 758.56,-226.73 758.56,-226.73 764.76,-227.11 758.83,-222.24 768.54,-227.34"/>
</g>
<!-- src.nse.model.experiments.experiment&#45;&gt;src.base.model.function -->
<g id="edge42" class="edge">
<title>src.nse.model.experiments.experiment&#45;&gt;src.base.model.function</title>
<path fill="none" stroke="black" d="M1098.12,-321.63C994.48,-334.92 843.99,-354.21 750.77,-366.16"/>
<polygon fill="black" stroke="black" points="740.9,-367.43 750.25,-361.69 744.65,-366.95 750.82,-366.16 750.82,-366.16 750.82,-366.16 744.65,-366.95 751.39,-370.62 740.9,-367.43"/>
</g>
<!-- src.nse.model.experiments.experiment&#45;&gt;src.base.model.mesh -->
<g id="edge43" class="edge">
<title>src.nse.model.experiments.experiment&#45;&gt;src.base.model.mesh</title>
<path fill="none" stroke="black" d="M1196.8,-324.41C1174.77,-349.24 1134.18,-394.99 1108.79,-423.6"/>
<polygon fill="black" stroke="black" points="1102.24,-430.98 1105.51,-420.51 1104.75,-428.15 1108.88,-423.5 1108.88,-423.5 1108.88,-423.5 1104.75,-428.15 1112.24,-426.48 1102.24,-430.98"/>
</g>
<!-- src.nse.model.experiments.experiment&#45;&gt;src.base.model.shape -->
<g id="edge44" class="edge">
<title>src.nse.model.experiments.experiment&#45;&gt;src.base.model.shape</title>
<path fill="none" stroke="black" d="M1134.32,-324.48C1086.43,-335.23 1025.32,-348.94 977.54,-359.66"/>
<polygon fill="black" stroke="black" points="967.82,-361.84 976.6,-355.26 971.51,-361.01 977.58,-359.65 977.58,-359.65 977.58,-359.65 971.51,-361.01 978.57,-364.04 967.82,-361.84"/>
</g>
<!-- src.nse.model.experiments.experiment&#45;&gt;src.nse.model.record -->
<g id="edge45" class="edge">
<title>src.nse.model.experiments.experiment&#45;&gt;src.nse.model.record</title>
<path fill="none" stroke="black" d="M1262.45,-324.48C1289.9,-334.04 1324.08,-345.95 1352.96,-356"/>
<polygon fill="black" stroke="black" points="1362.19,-359.22 1351.27,-360.18 1358.62,-357.97 1352.75,-355.93 1352.75,-355.93 1352.75,-355.93 1358.62,-357.97 1354.23,-351.68 1362.19,-359.22"/>
</g>
<!-- src.nse.model.experiments.foam&#45;&gt;src -->
<g id="edge46" class="edge">
<title>src.nse.model.experiments.foam&#45;&gt;src</title>
<path fill="none" stroke="black" d="M964.9,-235.11C1185.33,-236.12 1716.9,-243.04 1913.36,-288.25"/>
<polygon fill="black" stroke="black" points="1922.96,-290.57 1912.18,-292.59 1919.28,-289.68 1913.24,-288.22 1913.24,-288.22 1913.24,-288.22 1919.28,-289.68 1914.3,-283.85 1922.96,-290.57"/>
</g>
<!-- src.nse.model.experiments.foam&#45;&gt;src.base.model.algebra -->
<g id="edge47" class="edge">
<title>src.nse.model.experiments.foam&#45;&gt;src.base.model.algebra</title>
<path fill="none" stroke="black" d="M769.51,-251.98C667.02,-274.21 528.06,-319.62 584.25,-396 622.28,-447.69 797.59,-487.4 903.42,-507.16"/>
<polygon fill="black" stroke="black" points="913.19,-508.96 902.54,-511.57 909.47,-508.27 903.36,-507.15 903.36,-507.15 903.36,-507.15 909.47,-508.27 904.17,-502.72 913.19,-508.96"/>
</g>
<!-- src.nse.model.experiments.foam&#45;&gt;src.base.model.function -->
<g id="edge48" class="edge">
<title>src.nse.model.experiments.foam&#45;&gt;src.base.model.function</title>
<path fill="none" stroke="black" d="M842.6,-252.41C806.79,-277.71 740.26,-324.71 699.94,-353.2"/>
<polygon fill="black" stroke="black" points="691.78,-358.96 697.35,-349.52 694.87,-356.78 699.95,-353.19 699.95,-353.19 699.95,-353.19 694.87,-356.78 702.54,-356.87 691.78,-358.96"/>
</g>
<!-- src.nse.model.experiments.foam&#45;&gt;src.base.model.mesh -->
<g id="edge49" class="edge">
<title>src.nse.model.experiments.foam&#45;&gt;src.base.model.mesh</title>
<path fill="none" stroke="black" d="M881.87,-252.28C907.94,-282.69 964.75,-347.18 1018.25,-396 1029.24,-406.03 1041.95,-416.27 1053.39,-425.03"/>
<polygon fill="black" stroke="black" points="1061.26,-430.98 1050.57,-428.54 1058.24,-428.7 1053.28,-424.95 1053.28,-424.95 1053.28,-424.95 1058.24,-428.7 1055.99,-421.36 1061.26,-430.98"/>
</g>
<!-- src.nse.model.experiments.foam&#45;&gt;src.base.model.shape -->
<g id="edge50" class="edge">
<title>src.nse.model.experiments.foam&#45;&gt;src.base.model.shape</title>
<path fill="none" stroke="black" d="M871.3,-252.41C876.89,-276.5 887.06,-320.25 893.73,-348.97"/>
<polygon fill="black" stroke="black" points="896,-358.7 889.35,-349.98 895.14,-355.02 893.73,-348.96 893.73,-348.96 893.73,-348.96 895.14,-355.02 898.12,-347.94 896,-358.7"/>
</g>
<!-- src.nse.model.experiments.foam&#45;&gt;src.base.view.plot -->
<g id="edge51" class="edge">
<title>src.nse.model.experiments.foam&#45;&gt;src.base.view.plot</title>
<path fill="none" stroke="black" d="M964.92,-243.97C1121.75,-258.38 1425.83,-286.31 1561.29,-298.76"/>
<polygon fill="black" stroke="black" points="1571.09,-299.66 1560.72,-303.22 1567.33,-299.31 1561.14,-298.74 1561.14,-298.74 1561.14,-298.74 1567.33,-299.31 1561.55,-294.26 1571.09,-299.66"/>
</g>
<!-- src.nse.model.experiments.foam&#45;&gt;src.nse.model.experiments -->
<g id="edge52" class="edge">
<title>src.nse.model.experiments.foam&#45;&gt;src.nse.model.experiments</title>
<path fill="none" stroke="black" d="M868.09,-215.89C869.27,-191.97 871.43,-148.24 872.85,-119.4"/>
<polygon fill="black" stroke="black" points="873.33,-109.63 877.33,-119.84 873.15,-113.41 872.84,-119.62 872.84,-119.62 872.84,-119.62 873.15,-113.41 868.34,-119.4 873.33,-109.63"/>
</g>
<!-- src.nse.model.experiments.foam&#45;&gt;src.nse.model.experiments.experiment -->
<g id="edge53" class="edge">
<title>src.nse.model.experiments.foam&#45;&gt;src.nse.model.experiments.experiment</title>
<path fill="none" stroke="black" d="M953.42,-252.48C1002.7,-262.48 1064.65,-275.05 1115.59,-285.39"/>
<polygon fill="black" stroke="black" points="1125.09,-287.32 1114.39,-289.74 1121.38,-286.56 1115.29,-285.33 1115.29,-285.33 1115.29,-285.33 1121.38,-286.56 1116.18,-280.92 1125.09,-287.32"/>
</g>
<!-- src.nse.model.experiments.foam&#45;&gt;src.nse.model.record -->
<g id="edge54" class="edge">
<title>src.nse.model.experiments.foam&#45;&gt;src.nse.model.record</title>
<path fill="none" stroke="black" d="M915.81,-252.46C943.13,-262.47 977.76,-275.51 1008.25,-288 1044.7,-302.94 1051.5,-312.73 1089.25,-324 1172.15,-348.76 1270.66,-362.79 1337.12,-370.11"/>
<polygon fill="black" stroke="black" points="1346.7,-371.14 1336.27,-374.55 1342.94,-370.74 1336.76,-370.07 1336.76,-370.07 1336.76,-370.07 1342.94,-370.74 1337.24,-365.6 1346.7,-371.14"/>
</g>
<!-- src.nse.model.experiments.slalom&#45;&gt;src.base.model.function -->
<g id="edge55" class="edge">
<title>src.nse.model.experiments.slalom&#45;&gt;src.base.model.function</title>
<path fill="none" stroke="black" d="M901.54,-176.96C845.95,-186.19 783.89,-199.61 761.25,-216 715.03,-249.46 687.49,-312.9 674.77,-349.36"/>
<polygon fill="black" stroke="black" points="671.68,-358.59 670.59,-347.67 672.88,-355 674.85,-349.1 674.85,-349.1 674.85,-349.1 672.88,-355 679.12,-350.53 671.68,-358.59"/>
</g>
<!-- src.nse.model.experiments.slalom&#45;&gt;src.base.model.mesh -->
<g id="edge56" class="edge">
<title>src.nse.model.experiments.slalom&#45;&gt;src.base.model.mesh</title>
<path fill="none" stroke="black" d="M1008.32,-180.46C1022.24,-228.44 1061.18,-362.61 1078.16,-421.12"/>
<polygon fill="black" stroke="black" points="1080.91,-430.6 1073.8,-422.25 1079.86,-426.97 1078.12,-420.99 1078.12,-420.99 1078.12,-420.99 1079.86,-426.97 1082.44,-419.74 1080.91,-430.6"/>
</g>
<!-- src.nse.model.experiments.slalom&#45;&gt;src.base.model.shape -->
<g id="edge57" class="edge">
<title>src.nse.model.experiments.slalom&#45;&gt;src.base.model.shape</title>
<path fill="none" stroke="black" d="M999.54,-180.22C995.08,-198.78 986.49,-228.77 973.25,-252 962.79,-270.34 953.75,-270.29 942.25,-288 929.63,-307.43 918.59,-331.26 911.01,-349.36"/>
<polygon fill="black" stroke="black" points="907.31,-358.42 906.92,-347.46 908.74,-354.92 911.09,-349.16 911.09,-349.16 911.09,-349.16 908.74,-354.92 915.25,-350.86 907.31,-358.42"/>
</g>
<!-- src.nse.model.experiments.slalom&#45;&gt;src.nse.model.experiments.experiment -->
<g id="edge58" class="edge">
<title>src.nse.model.experiments.slalom&#45;&gt;src.nse.model.experiments.experiment</title>
<path fill="none" stroke="black" d="M1088.29,-180.45C1112.67,-188.39 1138.09,-199.78 1158.25,-216 1178.33,-232.15 1192.79,-257.92 1201.67,-277.59"/>
<polygon fill="black" stroke="black" points="1205.55,-286.66 1197.48,-279.23 1204.06,-283.19 1201.62,-277.47 1201.62,-277.47 1201.62,-277.47 1204.06,-283.19 1205.76,-275.7 1205.55,-286.66"/>
</g>
<!-- src.nse.model.experiments.slalom&#45;&gt;src.nse.model.experiments.foam -->
<g id="edge59" class="edge">
<title>src.nse.model.experiments.slalom&#45;&gt;src.nse.model.experiments.foam</title>
<path fill="none" stroke="black" d="M969.28,-180.48C951.54,-189.61 929.64,-200.89 910.68,-210.65"/>
<polygon fill="black" stroke="black" points="901.87,-215.18 908.7,-206.6 905.23,-213.45 910.76,-210.61 910.76,-210.61 910.76,-210.61 905.23,-213.45 912.82,-214.61 901.87,-215.18"/>
</g>
<!-- src.nse.model.experiments.slit&#45;&gt;src.base.model.function -->
<g id="edge60" class="edge">
<title>src.nse.model.experiments.slit&#45;&gt;src.base.model.function</title>
<path fill="none" stroke="black" d="M1451.88,-180.3C1420.34,-221.02 1343.33,-319.78 1335.25,-324 1234.53,-376.57 938.42,-349.96 825.25,-360 801.03,-362.15 774.77,-364.82 750.7,-367.4"/>
<polygon fill="black" stroke="black" points="741.03,-368.44 750.48,-362.9 744.79,-368.04 750.97,-367.37 750.97,-367.37 750.97,-367.37 744.79,-368.04 751.45,-371.84 741.03,-368.44"/>
</g>
<!-- src.nse.model.experiments.slit&#45;&gt;src.base.model.mesh -->
<g id="edge61" class="edge">
<title>src.nse.model.experiments.slit&#45;&gt;src.base.model.mesh</title>
<path fill="none" stroke="black" d="M1474.37,-180.22C1495.48,-222.72 1541.89,-333.67 1487.25,-396 1466.24,-419.96 1273.43,-436.59 1163,-444.24"/>
<polygon fill="black" stroke="black" points="1153.14,-444.91 1162.81,-439.74 1156.91,-444.65 1163.12,-444.23 1163.12,-444.23 1163.12,-444.23 1156.91,-444.65 1163.42,-448.72 1153.14,-444.91"/>
</g>
<!-- src.nse.model.experiments.slit&#45;&gt;src.base.model.shape -->
<g id="edge62" class="edge">
<title>src.nse.model.experiments.slit&#45;&gt;src.base.model.shape</title>
<path fill="none" stroke="black" d="M1460.39,-180.47C1449.91,-214.59 1421.66,-289.71 1368.25,-324 1305.34,-364.38 1093.54,-374.12 977.63,-376.38"/>
<polygon fill="black" stroke="black" points="967.94,-376.56 977.86,-371.88 971.72,-376.49 977.94,-376.38 977.94,-376.38 977.94,-376.38 971.72,-376.49 978.02,-380.88 967.94,-376.56"/>
</g>
<!-- src.nse.model.experiments.slit&#45;&gt;src.nse.model.experiments.experiment -->
<g id="edge63" class="edge">
<title>src.nse.model.experiments.slit&#45;&gt;src.nse.model.experiments.experiment</title>
<path fill="none" stroke="black" d="M1430.17,-180.39C1410.12,-190.49 1384.6,-203.64 1362.25,-216 1323.4,-237.5 1279.84,-263.57 1249.72,-281.92"/>
<polygon fill="black" stroke="black" points="1241.47,-286.95 1247.66,-277.9 1244.7,-284.98 1250.01,-281.74 1250.01,-281.74 1250.01,-281.74 1244.7,-284.98 1252.35,-285.58 1241.47,-286.95"/>
</g>
<!-- src.nse.model.experiments.slit&#45;&gt;src.nse.model.experiments.foam -->
<g id="edge64" class="edge">
<title>src.nse.model.experiments.slit&#45;&gt;src.nse.model.experiments.foam</title>
<path fill="none" stroke="black" d="M1373.59,-174.39C1358.12,-176.29 1342.23,-178.21 1327.25,-180 1207.01,-194.33 1069.02,-210.15 975.78,-220.74"/>
<polygon fill="black" stroke="black" points="965.85,-221.87 975.28,-216.27 969.61,-221.44 975.79,-220.74 975.79,-220.74 975.79,-220.74 969.61,-221.44 976.3,-225.21 965.85,-221.87"/>
</g>
<!-- src.nse.model.experiments.step&#45;&gt;src.base.model.function -->
<g id="edge65" class="edge">
<title>src.nse.model.experiments.step&#45;&gt;src.base.model.function</title>
<path fill="none" stroke="black" d="M331.6,-180.31C353.26,-199.2 389.84,-229.74 424.25,-252 487.96,-293.21 566.87,-331.86 616.9,-354.98"/>
<polygon fill="black" stroke="black" points="625.71,-359.02 614.74,-358.94 622.27,-357.44 616.62,-354.85 616.62,-354.85 616.62,-354.85 622.27,-357.44 618.5,-350.76 625.71,-359.02"/>
</g>
<!-- src.nse.model.experiments.step&#45;&gt;src.base.model.mesh -->
<g id="edge66" class="edge">
<title>src.nse.model.experiments.step&#45;&gt;src.base.model.mesh</title>
<path fill="none" stroke="black" d="M322.37,-180.43C349.58,-225.46 429.29,-345.66 532.25,-396 614.38,-436.15 877.8,-445.9 1009.62,-448.26"/>
<polygon fill="black" stroke="black" points="1019.58,-448.43 1009.51,-452.76 1015.8,-448.36 1009.58,-448.26 1009.58,-448.26 1009.58,-448.26 1015.8,-448.36 1009.66,-443.76 1019.58,-448.43"/>
</g>
<!-- src.nse.model.experiments.step&#45;&gt;src.base.model.shape -->
<g id="edge67" class="edge">
<title>src.nse.model.experiments.step&#45;&gt;src.base.model.shape</title>
<path fill="none" stroke="black" d="M345.42,-180.33C391.86,-204.52 472.15,-246.14 486.25,-252 600.33,-299.41 738.78,-337.51 823.16,-358.69"/>
<polygon fill="black" stroke="black" points="832.75,-361.08 821.96,-363.03 829.08,-360.17 823.05,-358.66 823.05,-358.66 823.05,-358.66 829.08,-360.17 824.14,-354.3 832.75,-361.08"/>
</g>
<!-- src.nse.model.experiments.step&#45;&gt;src.nse.model.experiments.experiment -->
<g id="edge68" class="edge">
<title>src.nse.model.experiments.step&#45;&gt;src.nse.model.experiments.experiment</title>
<path fill="none" stroke="black" d="M366.75,-180.48C432.53,-200.87 546.84,-234.08 647.25,-252 797.23,-278.77 972.17,-292.53 1087.2,-299.24"/>
<polygon fill="black" stroke="black" points="1096.92,-299.8 1086.68,-303.72 1093.15,-299.58 1086.94,-299.23 1086.94,-299.23 1086.94,-299.23 1093.15,-299.58 1087.2,-294.73 1096.92,-299.8"/>
</g>
<!-- src.nse.model.experiments.step&#45;&gt;src.nse.model.experiments.foam -->
<g id="edge69" class="edge">
<title>src.nse.model.experiments.step&#45;&gt;src.nse.model.experiments.foam</title>
<path fill="none" stroke="black" d="M406.52,-178.74C409.46,-179.17 412.38,-179.59 415.25,-180 532.34,-196.52 667.01,-211.84 758.69,-221.71"/>
<polygon fill="black" stroke="black" points="768.44,-222.76 758.02,-226.17 764.68,-222.36 758.5,-221.69 758.5,-221.69 758.5,-221.69 764.68,-222.36 758.98,-217.22 768.44,-222.76"/>
</g>
<!-- src.nse.model.experiments.wing&#45;&gt;src.base.model.function -->
<g id="edge70" class="edge">
<title>src.nse.model.experiments.wing&#45;&gt;src.base.model.function</title>
<path fill="none" stroke="black" d="M726.17,-180.47C714.46,-190.1 700.58,-202.75 690.25,-216 668,-244.53 660.95,-252.88 652.25,-288 647.23,-308.27 651.25,-331.61 656.25,-349.3"/>
<polygon fill="black" stroke="black" points="659.15,-358.6 651.88,-350.39 658.02,-354.99 656.18,-349.05 656.18,-349.05 656.18,-349.05 658.02,-354.99 660.47,-347.71 659.15,-358.6"/>
</g>
<!-- src.nse.model.experiments.wing&#45;&gt;src.base.model.mesh -->
<g id="edge71" class="edge">
<title>src.nse.model.experiments.wing&#45;&gt;src.base.model.mesh</title>
<path fill="none" stroke="black" d="M710.55,-180.46C693.9,-189.35 675.13,-201.39 661.25,-216 601.31,-279.08 526.04,-331.32 584.25,-396 612.16,-427.01 876.23,-441.21 1009.75,-446.45"/>
<polygon fill="black" stroke="black" points="1019.47,-446.83 1009.3,-450.94 1015.69,-446.68 1009.48,-446.44 1009.48,-446.44 1009.48,-446.44 1015.69,-446.68 1009.65,-441.94 1019.47,-446.83"/>
</g>
<!-- src.nse.model.experiments.wing&#45;&gt;src.base.model.shape -->
<g id="edge72" class="edge">
<title>src.nse.model.experiments.wing&#45;&gt;src.base.model.shape</title>
<path fill="none" stroke="black" d="M748.16,-180.46C747.74,-199.23 749.3,-229.39 761.25,-252 784.3,-295.61 828.98,-331.5 861.48,-353.46"/>
<polygon fill="black" stroke="black" points="869.7,-358.88 858.87,-357.14 866.54,-356.8 861.35,-353.38 861.35,-353.38 861.35,-353.38 866.54,-356.8 863.83,-349.62 869.7,-358.88"/>
</g>
<!-- src.nse.model.experiments.wing&#45;&gt;src.nse.model.experiments.experiment -->
<g id="edge73" class="edge">
<title>src.nse.model.experiments.wing&#45;&gt;src.nse.model.experiments.experiment</title>
<path fill="none" stroke="black" d="M834.21,-180.49C876.36,-189.83 927.84,-202.23 973.25,-216 1038.78,-235.87 1112.36,-264.21 1160.34,-283.54"/>
<polygon fill="black" stroke="black" points="1169.35,-287.19 1158.39,-287.61 1165.85,-285.77 1160.08,-283.43 1160.08,-283.43 1160.08,-283.43 1165.85,-285.77 1161.77,-279.26 1169.35,-287.19"/>
</g>
<!-- src.nse.model.experiments.wing&#45;&gt;src.nse.model.experiments.foam -->
<g id="edge74" class="edge">
<title>src.nse.model.experiments.wing&#45;&gt;src.nse.model.experiments.foam</title>
<path fill="none" stroke="black" d="M778.72,-180.48C793.9,-189.49 812.59,-200.58 828.88,-210.24"/>
<polygon fill="black" stroke="black" points="837.11,-215.12 826.21,-213.89 833.85,-213.19 828.51,-210.02 828.51,-210.02 828.51,-210.02 833.85,-213.19 830.8,-206.15 837.11,-215.12"/>
</g>
<!-- src.nse.model.loss -->
<g id="node27" class="node">
<title>src.nse.model.loss</title>
<polygon fill="#44bb99" stroke="#44bb99" points="2475.5,-36 2359,-36 2359,0 2475.5,0 2475.5,-36"/>
<text text-anchor="middle" x="2417.25" y="-12.95" font-family="Times New Roman,serif" font-size="14.00">src.nse.model.loss</text>
</g>
<!-- src.nse.view -->
<g id="node29" class="node">
<title>src.nse.view</title>
<polygon fill="#44bb99" stroke="#44bb99" points="2577,-36 2493.5,-36 2493.5,0 2577,0 2577,-36"/>
<text text-anchor="middle" x="2535.25" y="-12.95" font-family="Times New Roman,serif" font-size="14.00">src.nse.view</text>
</g>
<!-- src.nse.view.grading&#45;&gt;src -->
<g id="edge75" class="edge">
<title>src.nse.view.grading&#45;&gt;src</title>
<path fill="none" stroke="black" d="M1994.24,-180.41C1985.89,-204.6 1970.7,-248.64 1960.79,-277.35"/>
<polygon fill="black" stroke="black" points="1957.55,-286.74 1956.56,-275.82 1958.79,-283.16 1960.81,-277.28 1960.81,-277.28 1960.81,-277.28 1958.79,-283.16 1965.07,-278.75 1957.55,-286.74"/>
</g>
<!-- src.nse.view.grading&#45;&gt;src.base.model.algebra -->
<g id="edge76" class="edge">
<title>src.nse.view.grading&#45;&gt;src.base.model.algebra</title>
<path fill="none" stroke="black" d="M2018.45,-180.4C2042.61,-205.47 2082.25,-254.33 2082.25,-305 2082.25,-305 2082.25,-305 2082.25,-379 2082.25,-481.36 1321.36,-511.72 1066.97,-519"/>
<polygon fill="black" stroke="black" points="1057.18,-519.28 1067.05,-514.5 1060.96,-519.17 1067.17,-519 1067.17,-519 1067.17,-519 1060.96,-519.17 1067.3,-523.5 1057.18,-519.28"/>
</g>
<!-- src.nse.view.grading&#45;&gt;src.base.model.mesh -->
<g id="edge77" class="edge">
<title>src.nse.view.grading&#45;&gt;src.base.model.mesh</title>
<path fill="none" stroke="black" d="M2011.72,-180.33C2017.62,-190.31 2024.21,-203.35 2027.25,-216 2038.58,-263.18 2044.14,-288.33 2011.25,-324 1937.78,-403.68 1884.73,-375.74 1778.25,-396 1557.42,-438.03 1290.94,-446.95 1162.63,-448.69"/>
<polygon fill="black" stroke="black" points="1152.98,-448.81 1162.92,-444.19 1156.76,-448.77 1162.98,-448.69 1162.98,-448.69 1162.98,-448.69 1156.76,-448.77 1163.04,-453.19 1152.98,-448.81"/>
</g>
<!-- src.nse.view.grading&#45;&gt;src.base.view.plot -->
<g id="edge78" class="edge">
<title>src.nse.view.grading&#45;&gt;src.base.view.plot</title>
<path fill="none" stroke="black" d="M1967.86,-180.42C1931.12,-199.7 1869.06,-230.84 1813.25,-252 1775.5,-266.31 1732.16,-278.97 1697.03,-288.32"/>
<polygon fill="black" stroke="black" points="1687.58,-290.81 1696.11,-283.91 1691.24,-289.85 1697.25,-288.27 1697.25,-288.27 1697.25,-288.27 1691.24,-289.85 1698.4,-292.62 1687.58,-290.81"/>
</g>
<!-- src.nse.view.grading&#45;&gt;src.nse.controller.simulation -->
<g id="edge79" class="edge">
<title>src.nse.view.grading&#45;&gt;src.nse.controller.simulation</title>
<path fill="none" stroke="black" d="M1936.14,-178.97C1895.82,-189.02 1843.44,-202.06 1800.26,-212.82"/>
<polygon fill="black" stroke="black" points="1790.68,-215.21 1799.29,-208.42 1794.35,-214.29 1800.38,-212.79 1800.38,-212.79 1800.38,-212.79 1794.35,-214.29 1801.47,-217.16 1790.68,-215.21"/>
</g>
<!-- src.nse.view.grading&#45;&gt;src.nse.model.experiments.experiment -->
<g id="edge80" class="edge">
<title>src.nse.view.grading&#45;&gt;src.nse.model.experiments.experiment</title>
<path fill="none" stroke="black" d="M1936,-170.65C1861.13,-179.9 1733.84,-196.65 1625.25,-216 1510.7,-236.41 1379.54,-265.7 1296.33,-285.03"/>
<polygon fill="black" stroke="black" points="1286.61,-287.29 1295.33,-280.64 1290.29,-286.43 1296.35,-285.02 1296.35,-285.02 1296.35,-285.02 1290.29,-286.43 1297.37,-289.4 1286.61,-287.29"/>
</g>
<!-- src.nse.view.grading&#45;&gt;src.nse.model.record -->
<g id="edge81" class="edge">
<title>src.nse.view.grading&#45;&gt;src.nse.model.record</title>
<path fill="none" stroke="black" d="M2005.19,-180.46C2013.37,-213.55 2025.3,-285.51 1987.25,-324 1986.17,-325.1 1645.5,-356.01 1489.57,-370.11"/>
<polygon fill="black" stroke="black" points="1479.88,-370.99 1489.44,-365.6 1483.65,-370.65 1489.84,-370.09 1489.84,-370.09 1489.84,-370.09 1483.65,-370.65 1490.25,-374.57 1479.88,-370.99"/>
</g>
<!-- src.nse.view.grading&#45;&gt;src.utils.timer -->
<g id="edge82" class="edge">
<title>src.nse.view.grading&#45;&gt;src.utils.timer</title>
<path fill="none" stroke="black" d="M2039.21,-180.48C2059.86,-189.75 2085.42,-201.22 2107.38,-211.07"/>
<polygon fill="black" stroke="black" points="2116.4,-215.12 2105.44,-215.13 2112.95,-213.57 2107.28,-211.03 2107.28,-211.03 2107.28,-211.03 2112.95,-213.57 2109.12,-206.92 2116.4,-215.12"/>
</g>
<!-- src.nse.view.prediction&#45;&gt;src -->
<g id="edge83" class="edge">
<title>src.nse.view.prediction&#45;&gt;src</title>
<path fill="none" stroke="black" d="M1715.08,-180.5C1745.89,-189.36 1782.11,-201.37 1813.25,-216 1851.8,-234.11 1892.35,-261.39 1919.44,-280.97"/>
<polygon fill="black" stroke="black" points="1927.45,-286.83 1916.72,-284.56 1924.4,-284.6 1919.38,-280.93 1919.38,-280.93 1919.38,-280.93 1924.4,-284.6 1922.03,-277.29 1927.45,-286.83"/>
</g>
<!-- src.nse.view.prediction&#45;&gt;src.base.model.mesh -->
<g id="edge84" class="edge">
<title>src.nse.view.prediction&#45;&gt;src.base.model.mesh</title>
<path fill="none" stroke="black" d="M1632.82,-180.34C1616.06,-204.07 1585.73,-248.24 1563.25,-288 1537.03,-334.37 1554.51,-364.91 1511.25,-396 1457.09,-434.92 1270.12,-445.32 1163.08,-448.06"/>
<polygon fill="black" stroke="black" points="1153.25,-448.29 1163.14,-443.56 1157.03,-448.2 1163.24,-448.05 1163.24,-448.05 1163.24,-448.05 1157.03,-448.2 1163.35,-452.55 1153.25,-448.29"/>
</g>
<!-- src.nse.view.prediction&#45;&gt;src.base.view.plot -->
<g id="edge85" class="edge">
<title>src.nse.view.prediction&#45;&gt;src.base.view.plot</title>
<path fill="none" stroke="black" d="M1636.94,-180.21C1632.51,-190.37 1627.51,-203.62 1625.25,-216 1621.58,-236.12 1622.77,-259.21 1624.78,-276.83"/>
<polygon fill="black" stroke="black" points="1626.05,-286.58 1620.29,-277.24 1625.56,-282.83 1624.76,-276.66 1624.76,-276.66 1624.76,-276.66 1625.56,-282.83 1629.22,-276.08 1626.05,-286.58"/>
</g>
<!-- src.nse.view.prediction&#45;&gt;src.nse.controller.simulation -->
<g id="edge86" class="edge">
<title>src.nse.view.prediction&#45;&gt;src.nse.controller.simulation</title>
<path fill="none" stroke="black" d="M1663.54,-180.3C1672.44,-188.72 1683.29,-198.98 1693.04,-208.21"/>
<polygon fill="black" stroke="black" points="1700.03,-214.82 1689.67,-211.21 1697.28,-212.22 1692.76,-207.94 1692.76,-207.94 1692.76,-207.94 1697.28,-212.22 1695.85,-204.67 1700.03,-214.82"/>
</g>
<!-- src.nse.view.prediction&#45;&gt;src.nse.model.experiments.experiment -->
<g id="edge87" class="edge">
<title>src.nse.view.prediction&#45;&gt;src.nse.model.experiments.experiment</title>
<path fill="none" stroke="black" d="M1588.44,-180.49C1555.6,-190.68 1513.53,-203.87 1476.25,-216 1406.4,-238.73 1326.51,-265.81 1273.08,-284.08"/>
<polygon fill="black" stroke="black" points="1263.91,-287.22 1271.91,-279.73 1267.49,-286 1273.37,-283.99 1273.37,-283.99 1273.37,-283.99 1267.49,-286 1274.83,-288.24 1263.91,-287.22"/>
</g>
<!-- src.utils -->
<g id="node32" class="node">
<title>src.utils</title>
<polygon fill="#bbcc33" stroke="#bbcc33" points="2653.62,-36 2594.88,-36 2594.88,0 2653.62,0 2653.62,-36"/>
<text text-anchor="middle" x="2624.25" y="-12.95" font-family="Times New Roman,serif" font-size="14.00">src.utils</text>
</g>
</g>
</svg>
