<?xml version="1.0" encoding="UTF-8" standalone="no"?>
<!DOCTYPE svg PUBLIC "-//W3C//DTD SVG 1.1//EN"
 "http://www.w3.org/Graphics/SVG/1.1/DTD/svg11.dtd">
<!-- Generated by graphviz version 12.1.1 (20240910.0053)
 -->
<!-- Title: packages Pages: 1 -->
<svg width="2735pt" height="548pt"
 viewBox="0.00 0.00 2735.42 548.00" xmlns="http://www.w3.org/2000/svg" xmlns:xlink="http://www.w3.org/1999/xlink">
<g id="graph0" class="graph" transform="scale(1 1) rotate(0) translate(4 544)">
<title>packages</title>
<polygon fill="white" stroke="none" points="-4,4 -4,-544 2731.42,-544 2731.42,4 -4,4"/>
<!-- src -->
<g id="node1" class="node">
<title>src</title>
<polygon fill="#77aadd" stroke="#77aadd" points="1847.05,-324 1793.05,-324 1793.05,-288 1847.05,-288 1847.05,-324"/>
<text text-anchor="middle" x="1820.05" y="-300.95" font-family="Times New Roman,serif" font-size="14.00">src</text>
</g>
<!-- src.base -->
<g id="node2" class="node">
<title>src.base</title>
<polygon fill="#99ddff" stroke="#99ddff" points="1730.8,-36 1671.3,-36 1671.3,0 1730.8,0 1730.8,-36"/>
<text text-anchor="middle" x="1701.05" y="-12.95" font-family="Times New Roman,serif" font-size="14.00">src.base</text>
</g>
<!-- src.base.controller -->
<g id="node3" class="node">
<title>src.base.controller</title>
<polygon fill="#99ddff" stroke="#99ddff" points="1864.92,-36 1749.17,-36 1749.17,0 1864.92,0 1864.92,-36"/>
<text text-anchor="middle" x="1807.05" y="-12.95" font-family="Times New Roman,serif" font-size="14.00">src.base.controller</text>
</g>
<!-- src.base.controller.network -->
<g id="node4" class="node">
<title>src.base.controller.network</title>
<polygon fill="#99ddff" stroke="#99ddff" points="1698.55,-324 1535.55,-324 1535.55,-288 1698.55,-288 1698.55,-324"/>
<text text-anchor="middle" x="1617.05" y="-300.95" font-family="Times New Roman,serif" font-size="14.00">src.base.controller.network</text>
</g>
<!-- src.base.model.mesh -->
<g id="node8" class="node">
<title>src.base.model.mesh</title>
<polygon fill="#99ddff" stroke="#99ddff" points="1288.42,-468 1157.67,-468 1157.67,-432 1288.42,-432 1288.42,-468"/>
<text text-anchor="middle" x="1223.05" y="-444.95" font-family="Times New Roman,serif" font-size="14.00">src.base.model.mesh</text>
</g>
<!-- src.base.controller.network&#45;&gt;src.base.model.mesh -->
<g id="edge1" class="edge">
<title>src.base.controller.network&#45;&gt;src.base.model.mesh</title>
<path fill="none" stroke="black" d="M1621.85,-324.19C1626.29,-344.15 1629.79,-376.79 1612.05,-396 1571.15,-440.28 1401.08,-448.67 1299.85,-449.63"/>
<polygon fill="black" stroke="black" points="1289.98,-449.7 1299.95,-445.13 1293.76,-449.67 1299.98,-449.63 1299.98,-449.63 1299.98,-449.63 1293.76,-449.67 1300.01,-454.13 1289.98,-449.7"/>
</g>
<!-- src.base.model -->
<g id="node5" class="node">
<title>src.base.model</title>
<polygon fill="#99ddff" stroke="#99ddff" points="1980.92,-36 1883.17,-36 1883.17,0 1980.92,0 1980.92,-36"/>
<text text-anchor="middle" x="1932.05" y="-12.95" font-family="Times New Roman,serif" font-size="14.00">src.base.model</text>
</g>
<!-- src.base.model.algebra -->
<g id="node6" class="node">
<title>src.base.model.algebra</title>
<polygon fill="#99ddff" stroke="#99ddff" points="1293.67,-540 1152.42,-540 1152.42,-504 1293.67,-504 1293.67,-540"/>
<text text-anchor="middle" x="1223.05" y="-516.95" font-family="Times New Roman,serif" font-size="14.00">src.base.model.algebra</text>
</g>
<!-- src.base.model.function -->
<g id="node7" class="node">
<title>src.base.model.function</title>
<polygon fill="#99ddff" stroke="#99ddff" points="822.3,-396 675.8,-396 675.8,-360 822.3,-360 822.3,-396"/>
<text text-anchor="middle" x="749.05" y="-372.95" font-family="Times New Roman,serif" font-size="14.00">src.base.model.function</text>
</g>
<!-- src.base.model.mesh&#45;&gt;src.base.model.algebra -->
<g id="edge2" class="edge">
<title>src.base.model.mesh&#45;&gt;src.base.model.algebra</title>
<path fill="none" stroke="black" d="M1223.05,-468.3C1223.05,-475.68 1223.05,-484.48 1223.05,-492.75"/>
<polygon fill="black" stroke="black" points="1223.05,-502.68 1218.55,-492.68 1223.05,-498.9 1223.05,-492.68 1223.05,-492.68 1223.05,-492.68 1223.05,-498.9 1227.55,-492.68 1223.05,-502.68"/>
</g>
<!-- src.base.model.shape -->
<g id="node9" class="node">
<title>src.base.model.shape</title>
<polygon fill="#99ddff" stroke="#99ddff" points="370.17,-396 237.92,-396 237.92,-360 370.17,-360 370.17,-396"/>
<text text-anchor="middle" x="304.05" y="-372.95" font-family="Times New Roman,serif" font-size="14.00">src.base.model.shape</text>
</g>
<!-- src.base.model.shape&#45;&gt;src.base.model.algebra -->
<g id="edge3" class="edge">
<title>src.base.model.shape&#45;&gt;src.base.model.algebra</title>
<path fill="none" stroke="black" d="M370.34,-393.42C374.97,-394.32 379.57,-395.19 384.05,-396 660.45,-445.91 990.7,-490.83 1141.14,-510.5"/>
<polygon fill="black" stroke="black" points="1150.88,-511.77 1140.38,-514.94 1147.13,-511.28 1140.97,-510.48 1140.97,-510.48 1140.97,-510.48 1147.13,-511.28 1141.55,-506.01 1150.88,-511.77"/>
</g>
<!-- src.base.model.shape&#45;&gt;src.base.model.mesh -->
<g id="edge4" class="edge">
<title>src.base.model.shape&#45;&gt;src.base.model.mesh</title>
<path fill="none" stroke="black" d="M370.27,-393.85C374.92,-394.65 379.54,-395.38 384.05,-396 662.9,-434.23 997.75,-444.94 1145.98,-447.89"/>
<polygon fill="black" stroke="black" points="1155.96,-448.09 1145.88,-452.39 1152.18,-448.01 1145.96,-447.89 1145.96,-447.89 1145.96,-447.89 1152.18,-448.01 1146.05,-443.39 1155.96,-448.09"/>
</g>
<!-- src.base.view -->
<g id="node10" class="node">
<title>src.base.view</title>
<polygon fill="#99ddff" stroke="#99ddff" points="1454.8,-396 1365.3,-396 1365.3,-360 1454.8,-360 1454.8,-396"/>
<text text-anchor="middle" x="1410.05" y="-372.95" font-family="Times New Roman,serif" font-size="14.00">src.base.view</text>
</g>
<!-- src.base.view.plot -->
<g id="node11" class="node">
<title>src.base.view.plot</title>
<polygon fill="#99ddff" stroke="#99ddff" points="1440.8,-324 1327.3,-324 1327.3,-288 1440.8,-288 1440.8,-324"/>
<text text-anchor="middle" x="1384.05" y="-300.95" font-family="Times New Roman,serif" font-size="14.00">src.base.view.plot</text>
</g>
<!-- src.base.view.plot&#45;&gt;src.base.model.mesh -->
<g id="edge5" class="edge">
<title>src.base.view.plot&#45;&gt;src.base.model.mesh</title>
<path fill="none" stroke="black" d="M1373.08,-324.29C1360.32,-343.46 1337.83,-374.49 1313.05,-396 1299.79,-407.51 1283.69,-417.89 1268.8,-426.35"/>
<polygon fill="black" stroke="black" points="1260.29,-431.04 1266.87,-422.27 1263.6,-429.21 1269.05,-426.21 1269.05,-426.21 1269.05,-426.21 1263.6,-429.21 1271.22,-430.15 1260.29,-431.04"/>
</g>
<!-- src.base.view.plot&#45;&gt;src.base.model.shape -->
<g id="edge6" class="edge">
<title>src.base.view.plot&#45;&gt;src.base.model.shape</title>
<path fill="none" stroke="black" d="M1326.86,-310.83C1274.98,-314.3 1196.38,-319.53 1128.05,-324 853.57,-341.94 527.64,-362.76 381.58,-372.07"/>
<polygon fill="black" stroke="black" points="371.75,-372.69 381.45,-367.57 375.53,-372.45 381.73,-372.06 381.73,-372.06 381.73,-372.06 375.53,-372.45 382.02,-376.55 371.75,-372.69"/>
</g>
<!-- src.base.view.plot&#45;&gt;src.base.view -->
<g id="edge7" class="edge">
<title>src.base.view.plot&#45;&gt;src.base.view</title>
<path fill="none" stroke="black" d="M1390.47,-324.3C1393.31,-331.93 1396.71,-341.08 1399.87,-349.6"/>
<polygon fill="black" stroke="black" points="1403.27,-358.75 1395.57,-350.95 1401.95,-355.21 1399.79,-349.38 1399.79,-349.38 1399.79,-349.38 1401.95,-355.21 1404.01,-347.81 1403.27,-358.75"/>
</g>
<!-- src.be -->
<g id="node12" class="node">
<title>src.be</title>
<polygon fill="#44bb99" stroke="#44bb99" points="2053.05,-36 1999.05,-36 1999.05,0 2053.05,0 2053.05,-36"/>
<text text-anchor="middle" x="2026.05" y="-12.95" font-family="Times New Roman,serif" font-size="14.00">src.be</text>
</g>
<!-- src.be.__main__ -->
<g id="node13" class="node">
<title>src.be.__main__</title>
<polygon fill="#44bb99" stroke="#44bb99" points="2177.42,-36 2070.67,-36 2070.67,0 2177.42,0 2177.42,-36"/>
<text text-anchor="middle" x="2124.05" y="-12.95" font-family="Times New Roman,serif" font-size="14.00">src.be.__main__</text>
</g>
<!-- src.nse -->
<g id="node14" class="node">
<title>src.nse</title>
<polygon fill="#bbcc33" stroke="#bbcc33" points="1376.05,-108 1322.05,-108 1322.05,-72 1376.05,-72 1376.05,-108"/>
<text text-anchor="middle" x="1349.05" y="-84.95" font-family="Times New Roman,serif" font-size="14.00">src.nse</text>
</g>
<!-- src.nse.__main__ -->
<g id="node15" class="node">
<title>src.nse.__main__</title>
<polygon fill="#bbcc33" stroke="#bbcc33" points="1653.05,-36 1541.05,-36 1541.05,0 1653.05,0 1653.05,-36"/>
<text text-anchor="middle" x="1597.05" y="-12.95" font-family="Times New Roman,serif" font-size="14.00">src.nse.__main__</text>
</g>
<!-- src.nse.__main__&#45;&gt;src -->
<g id="edge8" class="edge">
<title>src.nse.__main__&#45;&gt;src</title>
<path fill="none" stroke="black" d="M1653.4,-33.81C1656.32,-34.55 1659.22,-35.29 1662.05,-36 1858.21,-85.34 1977.36,-41.74 2080.05,-216 2128.57,-298.34 1941.94,-306.31 1858.47,-305.89"/>
<polygon fill="black" stroke="black" points="1848.63,-305.79 1858.68,-301.39 1852.41,-305.83 1858.63,-305.89 1858.63,-305.89 1858.63,-305.89 1852.41,-305.83 1858.59,-310.39 1848.63,-305.79"/>
</g>
<!-- src.nse.__main__&#45;&gt;src.nse -->
<g id="edge9" class="edge">
<title>src.nse.__main__&#45;&gt;src.nse</title>
<path fill="none" stroke="black" d="M1540.63,-31.16C1498.65,-40.75 1440.19,-55.28 1390.05,-72 1388.91,-72.38 1387.77,-72.77 1386.61,-73.18"/>
<polygon fill="black" stroke="black" points="1377.33,-76.68 1385.1,-68.94 1380.87,-75.35 1386.68,-73.15 1386.68,-73.15 1386.68,-73.15 1380.87,-75.35 1388.27,-77.36 1377.33,-76.68"/>
</g>
<!-- src.nse.controller.simulation -->
<g id="node17" class="node">
<title>src.nse.controller.simulation</title>
<polygon fill="#bbcc33" stroke="#bbcc33" points="1695.3,-252 1524.8,-252 1524.8,-216 1695.3,-216 1695.3,-252"/>
<text text-anchor="middle" x="1610.05" y="-228.95" font-family="Times New Roman,serif" font-size="14.00">src.nse.controller.simulation</text>
</g>
<!-- src.nse.__main__&#45;&gt;src.nse.controller.simulation -->
<g id="edge10" class="edge">
<title>src.nse.__main__&#45;&gt;src.nse.controller.simulation</title>
<path fill="none" stroke="black" d="M1588.04,-36.38C1573.73,-66.41 1549.18,-129.62 1567.05,-180 1570.59,-190.01 1576.93,-199.5 1583.66,-207.61"/>
<polygon fill="black" stroke="black" points="1590.19,-214.93 1580.18,-210.47 1587.67,-212.11 1583.53,-207.47 1583.53,-207.47 1583.53,-207.47 1587.67,-212.11 1586.89,-204.47 1590.19,-214.93"/>
</g>
<!-- src.nse.model.experiments -->
<g id="node19" class="node">
<title>src.nse.model.experiments</title>
<polygon fill="#bbcc33" stroke="#bbcc33" points="816.17,-108 653.92,-108 653.92,-72 816.17,-72 816.17,-108"/>
<text text-anchor="middle" x="735.05" y="-84.95" font-family="Times New Roman,serif" font-size="14.00">src.nse.model.experiments</text>
</g>
<!-- src.nse.__main__&#45;&gt;src.nse.model.experiments -->
<g id="edge11" class="edge">
<title>src.nse.__main__&#45;&gt;src.nse.model.experiments</title>
<path fill="none" stroke="black" d="M1540.82,-23.57C1395.55,-35.36 1006.6,-66.95 827.57,-81.49"/>
<polygon fill="black" stroke="black" points="817.82,-82.28 827.42,-76.98 821.59,-81.97 827.79,-81.47 827.79,-81.47 827.79,-81.47 821.59,-81.97 828.15,-85.95 817.82,-82.28"/>
</g>
<!-- src.nse.model.experiments.experiment -->
<g id="node23" class="node">
<title>src.nse.model.experiments.experiment</title>
<polygon fill="#bbcc33" stroke="#bbcc33" points="1118.8,-324 891.3,-324 891.3,-288 1118.8,-288 1118.8,-324"/>
<text text-anchor="middle" x="1005.05" y="-300.95" font-family="Times New Roman,serif" font-size="14.00">src.nse.model.experiments.experiment</text>
</g>
<!-- src.nse.__main__&#45;&gt;src.nse.model.experiments.experiment -->
<g id="edge12" class="edge">
<title>src.nse.__main__&#45;&gt;src.nse.model.experiments.experiment</title>
<path fill="none" stroke="black" d="M1577.82,-36.42C1542,-68.19 1461.74,-136.3 1385.05,-180 1311.26,-222.05 1288.64,-225.22 1208.05,-252 1170.45,-264.49 1128.16,-275.94 1091.95,-284.97"/>
<polygon fill="black" stroke="black" points="1082.59,-287.28 1091.22,-280.51 1086.27,-286.37 1092.3,-284.88 1092.3,-284.88 1092.3,-284.88 1086.27,-286.37 1093.38,-289.25 1082.59,-287.28"/>
</g>
<!-- src.nse.view.grading -->
<g id="node32" class="node">
<title>src.nse.view.grading</title>
<polygon fill="#bbcc33" stroke="#bbcc33" points="1900.92,-180 1773.17,-180 1773.17,-144 1900.92,-144 1900.92,-180"/>
<text text-anchor="middle" x="1837.05" y="-156.95" font-family="Times New Roman,serif" font-size="14.00">src.nse.view.grading</text>
</g>
<!-- src.nse.__main__&#45;&gt;src.nse.view.grading -->
<g id="edge13" class="edge">
<title>src.nse.__main__&#45;&gt;src.nse.view.grading</title>
<path fill="none" stroke="black" d="M1626.47,-36.41C1669.69,-61.98 1750.36,-109.71 1798.33,-138.09"/>
<polygon fill="black" stroke="black" points="1806.7,-143.05 1795.81,-141.83 1803.45,-141.12 1798.1,-137.96 1798.1,-137.96 1798.1,-137.96 1803.45,-141.12 1800.39,-134.08 1806.7,-143.05"/>
</g>
<!-- src.nse.view.prediction -->
<g id="node33" class="node">
<title>src.nse.view.prediction</title>
<polygon fill="#bbcc33" stroke="#bbcc33" points="1717.67,-180 1576.42,-180 1576.42,-144 1717.67,-144 1717.67,-180"/>
<text text-anchor="middle" x="1647.05" y="-156.95" font-family="Times New Roman,serif" font-size="14.00">src.nse.view.prediction</text>
</g>
<!-- src.nse.__main__&#45;&gt;src.nse.view.prediction -->
<g id="edge14" class="edge">
<title>src.nse.__main__&#45;&gt;src.nse.view.prediction</title>
<path fill="none" stroke="black" d="M1603.18,-36.41C1611.69,-60.6 1627.2,-104.64 1637.31,-133.35"/>
<polygon fill="black" stroke="black" points="1640.62,-142.74 1633.05,-134.8 1639.36,-139.17 1637.29,-133.31 1637.29,-133.31 1637.29,-133.31 1639.36,-139.17 1641.54,-131.81 1640.62,-142.74"/>
</g>
<!-- src.utils.timer -->
<g id="node35" class="node">
<title>src.utils.timer</title>
<polygon fill="#aaaa00" stroke="#aaaa00" points="2070.92,-252 1979.17,-252 1979.17,-216 2070.92,-216 2070.92,-252"/>
<text text-anchor="middle" x="2025.05" y="-228.95" font-family="Times New Roman,serif" font-size="14.00">src.utils.timer</text>
</g>
<!-- src.nse.__main__&#45;&gt;src.utils.timer -->
<g id="edge15" class="edge">
<title>src.nse.__main__&#45;&gt;src.utils.timer</title>
<path fill="none" stroke="black" d="M1653.49,-36.2C1717.9,-57.01 1825.27,-95.4 1910.05,-144 1942.34,-162.51 1975.58,-189.22 1997.96,-208.54"/>
<polygon fill="black" stroke="black" points="2005.36,-215.01 1994.87,-211.81 2002.51,-212.52 1997.83,-208.43 1997.83,-208.43 1997.83,-208.43 2002.51,-212.52 2000.79,-205.04 2005.36,-215.01"/>
</g>
<!-- src.nse.controller -->
<g id="node16" class="node">
<title>src.nse.controller</title>
<polygon fill="#bbcc33" stroke="#bbcc33" points="2304.92,-36 2195.17,-36 2195.17,0 2304.92,0 2304.92,-36"/>
<text text-anchor="middle" x="2250.05" y="-12.95" font-family="Times New Roman,serif" font-size="14.00">src.nse.controller</text>
</g>
<!-- src.nse.controller.simulation&#45;&gt;src.base.controller.network -->
<g id="edge16" class="edge">
<title>src.nse.controller.simulation&#45;&gt;src.base.controller.network</title>
<path fill="none" stroke="black" d="M1611.78,-252.3C1612.51,-259.68 1613.39,-268.48 1614.22,-276.75"/>
<polygon fill="black" stroke="black" points="1615.21,-286.68 1609.74,-277.18 1614.84,-282.92 1614.22,-276.73 1614.22,-276.73 1614.22,-276.73 1614.84,-282.92 1618.7,-276.29 1615.21,-286.68"/>
</g>
<!-- src.nse.controller.simulation&#45;&gt;src.base.model.mesh -->
<g id="edge17" class="edge">
<title>src.nse.controller.simulation&#45;&gt;src.base.model.mesh</title>
<path fill="none" stroke="black" d="M1665.64,-252.41C1682.21,-260.49 1698.49,-271.97 1708.05,-288 1737.97,-338.2 1685.75,-370.75 1633.05,-396 1575.8,-423.42 1401.95,-438.25 1299.94,-444.8"/>
<polygon fill="black" stroke="black" points="1290,-445.42 1299.7,-440.31 1293.77,-445.19 1299.98,-444.8 1299.98,-444.8 1299.98,-444.8 1293.77,-445.19 1300.26,-449.29 1290,-445.42"/>
</g>
<!-- src.nse.controller.simulation&#45;&gt;src.nse.model.experiments.experiment -->
<g id="edge18" class="edge">
<title>src.nse.controller.simulation&#45;&gt;src.nse.model.experiments.experiment</title>
<path fill="none" stroke="black" d="M1524.51,-250.05C1519.96,-250.74 1515.45,-251.39 1511.05,-252 1381.56,-269.88 1232.7,-284.8 1130.12,-294.2"/>
<polygon fill="black" stroke="black" points="1120.31,-295.1 1129.86,-289.71 1124.08,-294.76 1130.27,-294.19 1130.27,-294.19 1130.27,-294.19 1124.08,-294.76 1130.68,-298.67 1120.31,-295.1"/>
</g>
<!-- src.nse.model.record -->
<g id="node30" class="node">
<title>src.nse.model.record</title>
<polygon fill="#bbcc33" stroke="#bbcc33" points="1603.05,-396 1473.05,-396 1473.05,-360 1603.05,-360 1603.05,-396"/>
<text text-anchor="middle" x="1538.05" y="-372.95" font-family="Times New Roman,serif" font-size="14.00">src.nse.model.record</text>
</g>
<!-- src.nse.controller.simulation&#45;&gt;src.nse.model.record -->
<g id="edge19" class="edge">
<title>src.nse.controller.simulation&#45;&gt;src.nse.model.record</title>
<path fill="none" stroke="black" d="M1566.05,-252.37C1550.89,-260.74 1535.59,-272.41 1527.05,-288 1516.78,-306.74 1520.68,-330.98 1526.52,-349.43"/>
<polygon fill="black" stroke="black" points="1529.78,-358.65 1522.2,-350.72 1528.52,-355.08 1526.44,-349.22 1526.44,-349.22 1526.44,-349.22 1528.52,-355.08 1530.69,-347.72 1529.78,-358.65"/>
</g>
<!-- src.nse.model -->
<g id="node18" class="node">
<title>src.nse.model</title>
<polygon fill="#bbcc33" stroke="#bbcc33" points="2414.92,-36 2323.17,-36 2323.17,0 2414.92,0 2414.92,-36"/>
<text text-anchor="middle" x="2369.05" y="-12.95" font-family="Times New Roman,serif" font-size="14.00">src.nse.model</text>
</g>
<!-- src.nse.model.experiments.block -->
<g id="node20" class="node">
<title>src.nse.model.experiments.block</title>
<polygon fill="#bbcc33" stroke="#bbcc33" points="1376.05,-180 1180.05,-180 1180.05,-144 1376.05,-144 1376.05,-180"/>
<text text-anchor="middle" x="1278.05" y="-156.95" font-family="Times New Roman,serif" font-size="14.00">src.nse.model.experiments.block</text>
</g>
<!-- src.nse.model.experiments&#45;&gt;src.nse.model.experiments.block -->
<g id="edge20" class="edge">
<title>src.nse.model.experiments&#45;&gt;src.nse.model.experiments.block</title>
<path fill="none" stroke="black" d="M816.32,-99.98C901.58,-109.6 1039.77,-125.78 1168.95,-143.73"/>
<polygon fill="black" stroke="black" points="1178.61,-145.08 1168.09,-148.16 1174.87,-144.56 1168.71,-143.7 1168.71,-143.7 1168.71,-143.7 1174.87,-144.56 1169.33,-139.24 1178.61,-145.08"/>
</g>
<!-- src.nse.model.experiments.cylinder -->
<g id="node21" class="node">
<title>src.nse.model.experiments.cylinder</title>
<polygon fill="#bbcc33" stroke="#bbcc33" points="395.17,-252 184.92,-252 184.92,-216 395.17,-216 395.17,-252"/>
<text text-anchor="middle" x="290.05" y="-228.95" font-family="Times New Roman,serif" font-size="14.00">src.nse.model.experiments.cylinder</text>
</g>
<!-- src.nse.model.experiments&#45;&gt;src.nse.model.experiments.cylinder -->
<g id="edge21" class="edge">
<title>src.nse.model.experiments&#45;&gt;src.nse.model.experiments.cylinder</title>
<path fill="none" stroke="black" d="M653.56,-90.8C545.65,-92.24 363.22,-101.19 314.05,-144 296.89,-158.93 291.39,-184.71 289.89,-204.69"/>
<polygon fill="black" stroke="black" points="289.46,-214.45 285.4,-204.26 289.62,-210.67 289.9,-204.46 289.9,-204.46 289.9,-204.46 289.62,-210.67 294.39,-204.65 289.46,-214.45"/>
</g>
<!-- src.nse.model.experiments.empty -->
<g id="node22" class="node">
<title>src.nse.model.experiments.empty</title>
<polygon fill="#bbcc33" stroke="#bbcc33" points="941.3,-180 740.8,-180 740.8,-144 941.3,-144 941.3,-180"/>
<text text-anchor="middle" x="841.05" y="-156.95" font-family="Times New Roman,serif" font-size="14.00">src.nse.model.experiments.empty</text>
</g>
<!-- src.nse.model.experiments&#45;&gt;src.nse.model.experiments.empty -->
<g id="edge22" class="edge">
<title>src.nse.model.experiments&#45;&gt;src.nse.model.experiments.empty</title>
<path fill="none" stroke="black" d="M761.52,-108.48C774.9,-117.32 791.32,-128.16 805.76,-137.7"/>
<polygon fill="black" stroke="black" points="813.89,-143.07 803.07,-141.31 810.74,-140.98 805.55,-137.56 805.55,-137.56 805.55,-137.56 810.74,-140.98 808.03,-133.8 813.89,-143.07"/>
</g>
<!-- src.nse.model.experiments.slalom -->
<g id="node25" class="node">
<title>src.nse.model.experiments.slalom</title>
<polygon fill="#bbcc33" stroke="#bbcc33" points="1162.42,-180 959.67,-180 959.67,-144 1162.42,-144 1162.42,-180"/>
<text text-anchor="middle" x="1061.05" y="-156.95" font-family="Times New Roman,serif" font-size="14.00">src.nse.model.experiments.slalom</text>
</g>
<!-- src.nse.model.experiments&#45;&gt;src.nse.model.experiments.slalom -->
<g id="edge23" class="edge">
<title>src.nse.model.experiments&#45;&gt;src.nse.model.experiments.slalom</title>
<path fill="none" stroke="black" d="M816.47,-108.48C862.84,-118.44 921.09,-130.95 969.1,-141.26"/>
<polygon fill="black" stroke="black" points="978.62,-143.3 967.9,-145.6 974.93,-142.51 968.85,-141.2 968.85,-141.2 968.85,-141.2 974.93,-142.51 969.79,-136.8 978.62,-143.3"/>
</g>
<!-- src.nse.model.experiments.slit -->
<g id="node26" class="node">
<title>src.nse.model.experiments.slit</title>
<polygon fill="#bbcc33" stroke="#bbcc33" points="517.3,-180 334.8,-180 334.8,-144 517.3,-144 517.3,-180"/>
<text text-anchor="middle" x="426.05" y="-156.95" font-family="Times New Roman,serif" font-size="14.00">src.nse.model.experiments.slit</text>
</g>
<!-- src.nse.model.experiments&#45;&gt;src.nse.model.experiments.slit -->
<g id="edge24" class="edge">
<title>src.nse.model.experiments&#45;&gt;src.nse.model.experiments.slit</title>
<path fill="none" stroke="black" d="M657.87,-108.48C614.1,-118.4 559.17,-130.84 513.77,-141.13"/>
<polygon fill="black" stroke="black" points="504.23,-143.29 512.99,-136.69 507.92,-142.45 513.98,-141.08 513.98,-141.08 513.98,-141.08 507.92,-142.45 514.98,-145.47 504.23,-143.29"/>
</g>
<!-- src.nse.model.experiments.step -->
<g id="node27" class="node">
<title>src.nse.model.experiments.step</title>
<polygon fill="#bbcc33" stroke="#bbcc33" points="722.92,-180 535.17,-180 535.17,-144 722.92,-144 722.92,-180"/>
<text text-anchor="middle" x="629.05" y="-156.95" font-family="Times New Roman,serif" font-size="14.00">src.nse.model.experiments.step</text>
</g>
<!-- src.nse.model.experiments&#45;&gt;src.nse.model.experiments.step -->
<g id="edge25" class="edge">
<title>src.nse.model.experiments&#45;&gt;src.nse.model.experiments.step</title>
<path fill="none" stroke="black" d="M708.57,-108.48C695.19,-117.32 678.77,-128.16 664.33,-137.7"/>
<polygon fill="black" stroke="black" points="656.2,-143.07 662.06,-133.8 659.36,-140.98 664.54,-137.56 664.54,-137.56 664.54,-137.56 659.36,-140.98 667.02,-141.31 656.2,-143.07"/>
</g>
<!-- src.nse.model.experiments.wing -->
<g id="node28" class="node">
<title>src.nse.model.experiments.wing</title>
<polygon fill="#bbcc33" stroke="#bbcc33" points="606.55,-252 413.55,-252 413.55,-216 606.55,-216 606.55,-252"/>
<text text-anchor="middle" x="510.05" y="-228.95" font-family="Times New Roman,serif" font-size="14.00">src.nse.model.experiments.wing</text>
</g>
<!-- src.nse.model.experiments&#45;&gt;src.nse.model.experiments.wing -->
<g id="edge26" class="edge">
<title>src.nse.model.experiments&#45;&gt;src.nse.model.experiments.wing</title>
<path fill="none" stroke="black" d="M653.46,-95.87C540.34,-103.47 347.29,-119.83 326.05,-144 315.48,-156.02 316.42,-167.22 326.05,-180 336.35,-193.69 368.19,-204.95 402.55,-213.51"/>
<polygon fill="black" stroke="black" points="412.09,-215.8 401.32,-217.85 408.42,-214.92 402.37,-213.47 402.37,-213.47 402.37,-213.47 408.42,-214.92 403.42,-209.09 412.09,-215.8"/>
</g>
<!-- src.nse.model.experiments.block&#45;&gt;src.base.model.function -->
<g id="edge27" class="edge">
<title>src.nse.model.experiments.block&#45;&gt;src.base.model.function</title>
<path fill="none" stroke="black" d="M1179.68,-179.65C1097.52,-193.72 992.32,-212.18 983.05,-216 940.04,-233.69 833.41,-312.69 780.23,-353.07"/>
<polygon fill="black" stroke="black" points="772.53,-358.93 777.76,-349.29 775.54,-356.64 780.49,-352.87 780.49,-352.87 780.49,-352.87 775.54,-356.64 783.21,-356.45 772.53,-358.93"/>
</g>
<!-- src.nse.model.experiments.block&#45;&gt;src.base.model.mesh -->
<g id="edge28" class="edge">
<title>src.nse.model.experiments.block&#45;&gt;src.base.model.mesh</title>
<path fill="none" stroke="black" d="M1282.09,-180.28C1290.56,-220.21 1306.85,-321.16 1275.05,-396 1270.58,-406.5 1262.99,-416.07 1254.97,-424.11"/>
<polygon fill="black" stroke="black" points="1247.79,-430.78 1252.06,-420.67 1250.56,-428.2 1255.12,-423.97 1255.12,-423.97 1255.12,-423.97 1250.56,-428.2 1258.18,-427.26 1247.79,-430.78"/>
</g>
<!-- src.nse.model.experiments.block&#45;&gt;src.base.model.shape -->
<g id="edge29" class="edge">
<title>src.nse.model.experiments.block&#45;&gt;src.base.model.shape</title>
<path fill="none" stroke="black" d="M1179.57,-179.11C1176.7,-179.43 1173.85,-179.73 1171.05,-180 1115.99,-185.35 214.45,-176.19 176.05,-216 131.94,-261.73 210.97,-321.67 263.28,-353.97"/>
<polygon fill="black" stroke="black" points="271.66,-359.04 260.78,-357.71 268.43,-357.08 263.11,-353.86 263.11,-353.86 263.11,-353.86 268.43,-357.08 265.44,-350.01 271.66,-359.04"/>
</g>
<!-- src.nse.model.experiments.block&#45;&gt;src.nse.model.experiments.experiment -->
<g id="edge30" class="edge">
<title>src.nse.model.experiments.block&#45;&gt;src.nse.model.experiments.experiment</title>
<path fill="none" stroke="black" d="M1179.7,-179.99C1099.55,-194.06 999.09,-212.33 996.05,-216 982.06,-232.86 986.22,-258.17 992.78,-277.5"/>
<polygon fill="black" stroke="black" points="996.25,-286.66 988.5,-278.9 994.91,-283.12 992.71,-277.31 992.71,-277.31 992.71,-277.31 994.91,-283.12 996.91,-275.71 996.25,-286.66"/>
</g>
<!-- src.nse.model.experiments.foam -->
<g id="node24" class="node">
<title>src.nse.model.experiments.foam</title>
<polygon fill="#bbcc33" stroke="#bbcc33" points="1199.3,-252 1004.8,-252 1004.8,-216 1199.3,-216 1199.3,-252"/>
<text text-anchor="middle" x="1102.05" y="-228.95" font-family="Times New Roman,serif" font-size="14.00">src.nse.model.experiments.foam</text>
</g>
<!-- src.nse.model.experiments.block&#45;&gt;src.nse.model.experiments.foam -->
<g id="edge31" class="edge">
<title>src.nse.model.experiments.block&#45;&gt;src.nse.model.experiments.foam</title>
<path fill="none" stroke="black" d="M1234.09,-180.48C1210.48,-189.87 1181.17,-201.53 1156.17,-211.47"/>
<polygon fill="black" stroke="black" points="1146.88,-215.17 1154.51,-207.29 1150.39,-213.77 1156.17,-211.47 1156.17,-211.47 1156.17,-211.47 1150.39,-213.77 1157.84,-215.65 1146.88,-215.17"/>
</g>
<!-- src.nse.model.experiments.cylinder&#45;&gt;src.base.model.function -->
<g id="edge32" class="edge">
<title>src.nse.model.experiments.cylinder&#45;&gt;src.base.model.function</title>
<path fill="none" stroke="black" d="M342.55,-252.45C397.97,-270.75 487.93,-300.1 566.05,-324 602.29,-335.09 642.76,-346.87 676.4,-356.5"/>
<polygon fill="black" stroke="black" points="685.9,-359.22 675.05,-360.8 682.27,-358.18 676.29,-356.47 676.29,-356.47 676.29,-356.47 682.27,-358.18 677.52,-352.14 685.9,-359.22"/>
</g>
<!-- src.nse.model.experiments.cylinder&#45;&gt;src.base.model.mesh -->
<g id="edge33" class="edge">
<title>src.nse.model.experiments.cylinder&#45;&gt;src.base.model.mesh</title>
<path fill="none" stroke="black" d="M314.07,-252.26C364.02,-287.05 483.95,-364.91 598.05,-396 699.42,-423.63 1003.1,-439.72 1146.48,-445.97"/>
<polygon fill="black" stroke="black" points="1156.14,-446.38 1145.95,-450.45 1152.36,-446.22 1146.15,-445.95 1146.15,-445.95 1146.15,-445.95 1152.36,-446.22 1146.34,-441.46 1156.14,-446.38"/>
</g>
<!-- src.nse.model.experiments.cylinder&#45;&gt;src.base.model.shape -->
<g id="edge34" class="edge">
<title>src.nse.model.experiments.cylinder&#45;&gt;src.base.model.shape</title>
<path fill="none" stroke="black" d="M291.76,-252.41C294.14,-276.5 298.45,-320.25 301.28,-348.97"/>
<polygon fill="black" stroke="black" points="302.24,-358.68 296.78,-349.17 301.87,-354.91 301.26,-348.72 301.26,-348.72 301.26,-348.72 301.87,-354.91 305.74,-348.28 302.24,-358.68"/>
</g>
<!-- src.nse.model.experiments.cylinder&#45;&gt;src.nse.model.experiments.experiment -->
<g id="edge35" class="edge">
<title>src.nse.model.experiments.cylinder&#45;&gt;src.nse.model.experiments.experiment</title>
<path fill="none" stroke="black" d="M395.6,-250.97C398.45,-251.33 401.26,-251.67 404.05,-252 568.25,-271.47 758.47,-287.08 880.19,-296.19"/>
<polygon fill="black" stroke="black" points="889.8,-296.9 879.5,-300.65 886.03,-296.62 879.83,-296.16 879.83,-296.16 879.83,-296.16 886.03,-296.62 880.16,-291.67 889.8,-296.9"/>
</g>
<!-- src.nse.model.experiments.empty&#45;&gt;src.base.model.function -->
<g id="edge36" class="edge">
<title>src.nse.model.experiments.empty&#45;&gt;src.base.model.function</title>
<path fill="none" stroke="black" d="M830.38,-180.32C824.33,-190.51 816.83,-203.76 811.05,-216 789.53,-261.54 769.53,-316.73 758.33,-349.23"/>
<polygon fill="black" stroke="black" points="755.15,-358.58 754.12,-347.66 756.37,-355 758.37,-349.11 758.37,-349.11 758.37,-349.11 756.37,-355 762.63,-350.57 755.15,-358.58"/>
</g>
<!-- src.nse.model.experiments.empty&#45;&gt;src.base.model.mesh -->
<g id="edge37" class="edge">
<title>src.nse.model.experiments.empty&#45;&gt;src.base.model.mesh</title>
<path fill="none" stroke="black" d="M941.75,-178.62C944.88,-179.09 947.99,-179.55 951.05,-180 1008.1,-188.4 1168.82,-173.72 1208.05,-216 1234.95,-245 1229.55,-365.22 1225.46,-420.7"/>
<polygon fill="black" stroke="black" points="1224.69,-430.6 1220.98,-420.28 1224.99,-426.83 1225.47,-420.63 1225.47,-420.63 1225.47,-420.63 1224.99,-426.83 1229.96,-420.98 1224.69,-430.6"/>
</g>
<!-- src.nse.model.experiments.empty&#45;&gt;src.base.model.shape -->
<g id="edge38" class="edge">
<title>src.nse.model.experiments.empty&#45;&gt;src.base.model.shape</title>
<path fill="none" stroke="black" d="M740.43,-179.06C737.61,-179.39 734.81,-179.71 732.05,-180 662.66,-187.39 152.95,-165.26 105.05,-216 72.09,-250.9 75.8,-285.94 105.05,-324 120.16,-343.67 177.35,-357.59 226.57,-366.21"/>
<polygon fill="black" stroke="black" points="236.38,-367.87 225.76,-370.64 232.65,-367.24 226.52,-366.2 226.52,-366.2 226.52,-366.2 232.65,-367.24 227.27,-361.76 236.38,-367.87"/>
</g>
<!-- src.nse.model.experiments.empty&#45;&gt;src.nse.model.experiments.experiment -->
<g id="edge39" class="edge">
<title>src.nse.model.experiments.empty&#45;&gt;src.nse.model.experiments.experiment</title>
<path fill="none" stroke="black" d="M861.16,-180.41C890.13,-205.5 943.74,-251.92 976.72,-280.47"/>
<polygon fill="black" stroke="black" points="984.11,-286.87 973.6,-283.73 981.25,-284.4 976.55,-280.32 976.55,-280.32 976.55,-280.32 981.25,-284.4 979.49,-276.92 984.11,-286.87"/>
</g>
<!-- src.nse.model.experiments.empty&#45;&gt;src.nse.model.experiments.foam -->
<g id="edge40" class="edge">
<title>src.nse.model.experiments.empty&#45;&gt;src.nse.model.experiments.foam</title>
<path fill="none" stroke="black" d="M906.23,-180.48C942.81,-190.29 988.6,-202.57 1026.71,-212.79"/>
<polygon fill="black" stroke="black" points="1036.06,-215.3 1025.24,-217.06 1032.41,-214.32 1026.4,-212.71 1026.4,-212.71 1026.4,-212.71 1032.41,-214.32 1027.57,-208.37 1036.06,-215.3"/>
</g>
<!-- src.nse.model.experiments.experiment&#45;&gt;src.base.model.function -->
<g id="edge41" class="edge">
<title>src.nse.model.experiments.experiment&#45;&gt;src.base.model.function</title>
<path fill="none" stroke="black" d="M941.11,-324.48C905.39,-334.25 860.7,-346.47 823.42,-356.66"/>
<polygon fill="black" stroke="black" points="813.79,-359.3 822.25,-352.32 817.44,-358.3 823.43,-356.66 823.43,-356.66 823.43,-356.66 817.44,-358.3 824.62,-361 813.79,-359.3"/>
</g>
<!-- src.nse.model.experiments.experiment&#45;&gt;src.base.model.mesh -->
<g id="edge42" class="edge">
<title>src.nse.model.experiments.experiment&#45;&gt;src.base.model.mesh</title>
<path fill="none" stroke="black" d="M1031.78,-324.41C1070.78,-349.82 1143.39,-397.11 1187.05,-425.56"/>
<polygon fill="black" stroke="black" points="1195.42,-431 1184.58,-429.32 1192.25,-428.94 1187.04,-425.54 1187.04,-425.54 1187.04,-425.54 1192.25,-428.94 1189.49,-421.77 1195.42,-431"/>
</g>
<!-- src.nse.model.experiments.experiment&#45;&gt;src.base.model.shape -->
<g id="edge43" class="edge">
<title>src.nse.model.experiments.experiment&#45;&gt;src.base.model.shape</title>
<path fill="none" stroke="black" d="M890.86,-318.4C747.37,-332.73 505,-356.93 381.46,-369.27"/>
<polygon fill="black" stroke="black" points="371.82,-370.23 381.32,-364.76 375.58,-369.86 381.77,-369.24 381.77,-369.24 381.77,-369.24 375.58,-369.86 382.21,-373.72 371.82,-370.23"/>
</g>
<!-- src.nse.model.experiments.experiment&#45;&gt;src.nse.model.record -->
<g id="edge44" class="edge">
<title>src.nse.model.experiments.experiment&#45;&gt;src.nse.model.record</title>
<path fill="none" stroke="black" d="M1119.2,-316.64C1209.64,-325.09 1339.37,-339.06 1461.7,-359.7"/>
<polygon fill="black" stroke="black" points="1471.55,-361.38 1460.94,-364.14 1467.83,-360.75 1461.7,-359.7 1461.7,-359.7 1461.7,-359.7 1467.83,-360.75 1462.45,-355.26 1471.55,-361.38"/>
</g>
<!-- src.nse.model.experiments.foam&#45;&gt;src -->
<g id="edge45" class="edge">
<title>src.nse.model.experiments.foam&#45;&gt;src</title>
<path fill="none" stroke="black" d="M1199.59,-241.62C1319.5,-250.19 1529.12,-266.62 1708.05,-288 1732.71,-290.95 1760.3,-295.12 1781.92,-298.6"/>
<polygon fill="black" stroke="black" points="1791.75,-300.2 1781.16,-303.03 1788.02,-299.59 1781.88,-298.59 1781.88,-298.59 1781.88,-298.59 1788.02,-299.59 1782.6,-294.15 1791.75,-300.2"/>
</g>
<!-- src.nse.model.experiments.foam&#45;&gt;src.base.model.function -->
<g id="edge46" class="edge">
<title>src.nse.model.experiments.foam&#45;&gt;src.base.model.function</title>
<path fill="none" stroke="black" d="M1115.69,-252.44C1129.25,-272.02 1145.69,-303.72 1128.05,-324 1090.69,-366.94 933.59,-376.14 833.74,-377.53"/>
<polygon fill="black" stroke="black" points="823.99,-377.64 833.93,-373.03 827.77,-377.6 833.98,-377.53 833.98,-377.53 833.98,-377.53 827.77,-377.6 834.04,-382.03 823.99,-377.64"/>
</g>
<!-- src.nse.model.experiments.foam&#45;&gt;src.base.model.mesh -->
<g id="edge47" class="edge">
<title>src.nse.model.experiments.foam&#45;&gt;src.base.model.mesh</title>
<path fill="none" stroke="black" d="M1118.28,-252.3C1127.14,-262.27 1137.92,-275.31 1146.05,-288 1174.41,-332.31 1199.03,-388.67 1212.38,-421.6"/>
<polygon fill="black" stroke="black" points="1216.02,-430.69 1208.13,-423.08 1214.62,-427.18 1212.31,-421.41 1212.31,-421.41 1212.31,-421.41 1214.62,-427.18 1216.48,-419.74 1216.02,-430.69"/>
</g>
<!-- src.nse.model.experiments.foam&#45;&gt;src.base.model.shape -->
<g id="edge48" class="edge">
<title>src.nse.model.experiments.foam&#45;&gt;src.base.model.shape</title>
<path fill="none" stroke="black" d="M1004.59,-252.34C844.07,-280.91 527.28,-337.28 381.19,-363.27"/>
<polygon fill="black" stroke="black" points="371.74,-364.95 380.8,-358.77 375.47,-364.29 381.59,-363.2 381.59,-363.2 381.59,-363.2 375.47,-364.29 382.38,-367.63 371.74,-364.95"/>
</g>
<!-- src.nse.model.experiments.foam&#45;&gt;src.base.view.plot -->
<g id="edge49" class="edge">
<title>src.nse.model.experiments.foam&#45;&gt;src.base.view.plot</title>
<path fill="none" stroke="black" d="M1172.48,-252.48C1216.39,-263.38 1272.61,-277.34 1316.06,-288.12"/>
<polygon fill="black" stroke="black" points="1325.63,-290.5 1314.84,-292.46 1321.96,-289.59 1315.93,-288.09 1315.93,-288.09 1315.93,-288.09 1321.96,-289.59 1317.01,-283.72 1325.63,-290.5"/>
</g>
<!-- src.nse.model.experiments.foam&#45;&gt;src.nse.model.experiments.experiment -->
<g id="edge50" class="edge">
<title>src.nse.model.experiments.foam&#45;&gt;src.nse.model.experiments.experiment</title>
<path fill="none" stroke="black" d="M1078.07,-252.3C1065.94,-261.05 1051.04,-271.81 1037.87,-281.31"/>
<polygon fill="black" stroke="black" points="1030.07,-286.94 1035.55,-277.44 1033.14,-284.73 1038.18,-281.09 1038.18,-281.09 1038.18,-281.09 1033.14,-284.73 1040.81,-284.74 1030.07,-286.94"/>
</g>
<!-- src.nse.model.experiments.foam&#45;&gt;src.nse.model.record -->
<g id="edge51" class="edge">
<title>src.nse.model.experiments.foam&#45;&gt;src.nse.model.record</title>
<path fill="none" stroke="black" d="M1199.58,-242.96C1286.87,-251.32 1407.43,-266.3 1450.05,-288 1478.76,-302.62 1503.73,-330.17 1519.67,-350.76"/>
<polygon fill="black" stroke="black" points="1525.6,-358.68 1516.01,-353.38 1523.34,-355.66 1519.61,-350.68 1519.61,-350.68 1519.61,-350.68 1523.34,-355.66 1523.21,-347.98 1525.6,-358.68"/>
</g>
<!-- src.nse.model.experiments.slalom&#45;&gt;src.base.model.function -->
<g id="edge52" class="edge">
<title>src.nse.model.experiments.slalom&#45;&gt;src.base.model.function</title>
<path fill="none" stroke="black" d="M959.6,-180.48C914.27,-189.86 867.04,-202.3 849.05,-216 805.19,-249.4 817.99,-277.72 788.05,-324 782.27,-332.92 775.55,-342.35 769.33,-350.75"/>
<polygon fill="black" stroke="black" points="763.32,-358.73 765.74,-348.04 765.59,-355.71 769.33,-350.74 769.33,-350.74 769.33,-350.74 765.59,-355.71 772.93,-353.45 763.32,-358.73"/>
</g>
<!-- src.nse.model.experiments.slalom&#45;&gt;src.base.model.mesh -->
<g id="edge53" class="edge">
<title>src.nse.model.experiments.slalom&#45;&gt;src.base.model.mesh</title>
<path fill="none" stroke="black" d="M1156.97,-180.46C1193.98,-189.31 1230.07,-201.33 1241.05,-216 1286.81,-277.19 1255.5,-374.45 1235.75,-421.59"/>
<polygon fill="black" stroke="black" points="1231.87,-430.54 1231.72,-419.57 1233.37,-427.07 1235.85,-421.36 1235.85,-421.36 1235.85,-421.36 1233.37,-427.07 1239.98,-423.15 1231.87,-430.54"/>
</g>
<!-- src.nse.model.experiments.slalom&#45;&gt;src.base.model.shape -->
<g id="edge54" class="edge">
<title>src.nse.model.experiments.slalom&#45;&gt;src.base.model.shape</title>
<path fill="none" stroke="black" d="M959.18,-179.04C956.1,-179.38 953.05,-179.7 950.05,-180 905.38,-184.4 174.06,-183.57 143.05,-216 109.87,-250.69 114.91,-285.11 143.05,-324 162.34,-350.66 195.49,-364.14 226.72,-370.87"/>
<polygon fill="black" stroke="black" points="236.46,-372.75 225.79,-375.27 232.75,-372.03 226.64,-370.85 226.64,-370.85 226.64,-370.85 232.75,-372.03 227.49,-366.44 236.46,-372.75"/>
</g>
<!-- src.nse.model.experiments.slalom&#45;&gt;src.nse.model.experiments.experiment -->
<g id="edge55" class="edge">
<title>src.nse.model.experiments.slalom&#45;&gt;src.nse.model.experiments.experiment</title>
<path fill="none" stroke="black" d="M1005.45,-180.41C988.88,-188.49 972.6,-199.97 963.05,-216 950.79,-236.56 964.52,-261.27 979.47,-279.43"/>
<polygon fill="black" stroke="black" points="986,-286.85 976.01,-282.31 983.5,-284.01 979.4,-279.34 979.4,-279.34 979.4,-279.34 983.5,-284.01 982.78,-276.37 986,-286.85"/>
</g>
<!-- src.nse.model.experiments.slalom&#45;&gt;src.nse.model.experiments.foam -->
<g id="edge56" class="edge">
<title>src.nse.model.experiments.slalom&#45;&gt;src.nse.model.experiments.foam</title>
<path fill="none" stroke="black" d="M1071.18,-180.3C1075.8,-188.19 1081.37,-197.7 1086.5,-206.45"/>
<polygon fill="black" stroke="black" points="1091.41,-214.84 1082.47,-208.49 1089.5,-211.58 1086.36,-206.22 1086.36,-206.22 1086.36,-206.22 1089.5,-211.58 1090.24,-203.94 1091.41,-214.84"/>
</g>
<!-- src.nse.model.experiments.slit&#45;&gt;src.base.model.function -->
<g id="edge57" class="edge">
<title>src.nse.model.experiments.slit&#45;&gt;src.base.model.function</title>
<path fill="none" stroke="black" d="M508.08,-180.46C550.57,-190.58 597.23,-203.72 615.05,-216 639.64,-232.95 675.44,-301.47 695.05,-324 703.37,-333.56 713.08,-343.44 721.96,-352.04"/>
<polygon fill="black" stroke="black" points="728.94,-358.7 718.6,-355.05 726.2,-356.09 721.7,-351.79 721.7,-351.79 721.7,-351.79 726.2,-356.09 724.81,-348.54 728.94,-358.7"/>
</g>
<!-- src.nse.model.experiments.slit&#45;&gt;src.base.model.mesh -->
<g id="edge58" class="edge">
<title>src.nse.model.experiments.slit&#45;&gt;src.base.model.mesh</title>
<path fill="none" stroke="black" d="M334.69,-168.97C223.8,-177.17 49.04,-193.48 29.05,-216 -25.63,-277.59 1.95,-354.43 73.05,-396 165.13,-449.85 903.39,-450.74 1146.05,-449.56"/>
<polygon fill="black" stroke="black" points="1156.01,-449.5 1146.03,-454.06 1152.23,-449.52 1146.01,-449.56 1146.01,-449.56 1146.01,-449.56 1152.23,-449.52 1145.99,-445.06 1156.01,-449.5"/>
</g>
<!-- src.nse.model.experiments.slit&#45;&gt;src.base.model.shape -->
<g id="edge59" class="edge">
<title>src.nse.model.experiments.slit&#45;&gt;src.base.model.shape</title>
<path fill="none" stroke="black" d="M334.64,-168.93C223.7,-177.08 48.88,-193.34 29.05,-216 -2.57,-252.12 -1.52,-286.99 29.05,-324 53.71,-353.87 154.18,-367.09 226.56,-372.81"/>
<polygon fill="black" stroke="black" points="236.25,-373.54 225.94,-377.28 232.48,-373.26 226.28,-372.79 226.28,-372.79 226.28,-372.79 232.48,-373.26 226.62,-368.3 236.25,-373.54"/>
</g>
<!-- src.nse.model.experiments.slit&#45;&gt;src.nse.model.experiments.experiment -->
<g id="edge60" class="edge">
<title>src.nse.model.experiments.slit&#45;&gt;src.nse.model.experiments.experiment</title>
<path fill="none" stroke="black" d="M504.77,-180.49C547.6,-190.31 601.41,-203.15 649.05,-216 702.39,-230.39 714.6,-237.96 768.05,-252 814.19,-264.12 865.85,-275.88 909.13,-285.23"/>
<polygon fill="black" stroke="black" points="918.75,-287.3 908.03,-289.6 915.06,-286.51 908.98,-285.2 908.98,-285.2 908.98,-285.2 915.06,-286.51 909.92,-280.8 918.75,-287.3"/>
</g>
<!-- src.nse.model.experiments.slit&#45;&gt;src.nse.model.experiments.foam -->
<g id="edge61" class="edge">
<title>src.nse.model.experiments.slit&#45;&gt;src.nse.model.experiments.foam</title>
<path fill="none" stroke="black" d="M517.56,-178.85C520.42,-179.25 523.25,-179.63 526.05,-180 688.34,-201.23 877.47,-216.91 993.47,-225.5"/>
<polygon fill="black" stroke="black" points="1003.25,-226.22 992.95,-229.98 999.48,-225.95 993.28,-225.49 993.28,-225.49 993.28,-225.49 999.48,-225.95 993.61,-221 1003.25,-226.22"/>
</g>
<!-- src.nse.model.experiments.step&#45;&gt;src.base.model.function -->
<g id="edge62" class="edge">
<title>src.nse.model.experiments.step&#45;&gt;src.base.model.function</title>
<path fill="none" stroke="black" d="M638.66,-180.15C659.51,-217.32 708.99,-305.56 734.01,-350.18"/>
<polygon fill="black" stroke="black" points="738.79,-358.7 729.97,-352.18 736.94,-355.41 733.9,-349.98 733.9,-349.98 733.9,-349.98 736.94,-355.41 737.82,-347.78 738.79,-358.7"/>
</g>
<!-- src.nse.model.experiments.step&#45;&gt;src.base.model.mesh -->
<g id="edge63" class="edge">
<title>src.nse.model.experiments.step&#45;&gt;src.base.model.mesh</title>
<path fill="none" stroke="black" d="M534.79,-178.9C531.85,-179.29 528.93,-179.66 526.05,-180 472.5,-186.4 78.74,-176.48 42.05,-216 32.06,-226.76 24.62,-297.5 43.05,-324 93.66,-396.77 142.37,-377.41 229.05,-396 403.69,-433.46 944.41,-444.98 1146.13,-448.03"/>
<polygon fill="black" stroke="black" points="1155.99,-448.17 1145.92,-452.53 1152.2,-448.12 1145.99,-448.03 1145.99,-448.03 1145.99,-448.03 1152.2,-448.12 1146.05,-443.53 1155.99,-448.17"/>
</g>
<!-- src.nse.model.experiments.step&#45;&gt;src.base.model.shape -->
<g id="edge64" class="edge">
<title>src.nse.model.experiments.step&#45;&gt;src.base.model.shape</title>
<path fill="none" stroke="black" d="M534.79,-178.89C531.85,-179.28 528.92,-179.65 526.05,-180 475.26,-186.17 101.78,-178.44 67.05,-216 34.46,-251.24 37.04,-286.54 67.05,-324 86.91,-348.79 165.52,-362.76 226.82,-370.06"/>
<polygon fill="black" stroke="black" points="236.45,-371.17 226,-374.5 232.69,-370.73 226.52,-370.03 226.52,-370.03 226.52,-370.03 232.69,-370.73 227.03,-365.55 236.45,-371.17"/>
</g>
<!-- src.nse.model.experiments.step&#45;&gt;src.nse.model.experiments.experiment -->
<g id="edge65" class="edge">
<title>src.nse.model.experiments.step&#45;&gt;src.nse.model.experiments.experiment</title>
<path fill="none" stroke="black" d="M675.15,-180.41C744.17,-206.48 874.18,-255.58 948.72,-283.73"/>
<polygon fill="black" stroke="black" points="957.72,-287.13 946.77,-287.8 954.18,-285.79 948.36,-283.59 948.36,-283.59 948.36,-283.59 954.18,-285.79 949.95,-279.38 957.72,-287.13"/>
</g>
<!-- src.nse.model.experiments.step&#45;&gt;src.nse.model.experiments.foam -->
<g id="edge66" class="edge">
<title>src.nse.model.experiments.step&#45;&gt;src.nse.model.experiments.foam</title>
<path fill="none" stroke="black" d="M723.33,-178.64C726.27,-179.11 729.18,-179.56 732.05,-180 820.07,-193.57 920.06,-207.82 993.89,-218.13"/>
<polygon fill="black" stroke="black" points="1003.38,-219.45 992.85,-222.52 999.63,-218.93 993.47,-218.07 993.47,-218.07 993.47,-218.07 999.63,-218.93 994.09,-213.61 1003.38,-219.45"/>
</g>
<!-- src.nse.model.experiments.wing&#45;&gt;src.base.model.function -->
<g id="edge67" class="edge">
<title>src.nse.model.experiments.wing&#45;&gt;src.base.model.function</title>
<path fill="none" stroke="black" d="M528.09,-252.18C549.12,-271.52 585.54,-303 621.05,-324 641.68,-336.21 665.66,-346.94 687.24,-355.51"/>
<polygon fill="black" stroke="black" points="696.48,-359.09 685.53,-359.67 692.96,-357.72 687.16,-355.47 687.16,-355.47 687.16,-355.47 692.96,-357.72 688.78,-351.28 696.48,-359.09"/>
</g>
<!-- src.nse.model.experiments.wing&#45;&gt;src.base.model.mesh -->
<g id="edge68" class="edge">
<title>src.nse.model.experiments.wing&#45;&gt;src.base.model.mesh</title>
<path fill="none" stroke="black" d="M518.41,-252.44C528.08,-271.45 545.37,-302.1 566.05,-324 603.89,-364.09 615.4,-376.73 667.05,-396 752.89,-428.04 1015.01,-441.66 1146.35,-446.59"/>
<polygon fill="black" stroke="black" points="1156.28,-446.96 1146.12,-451.09 1152.5,-446.82 1146.28,-446.59 1146.28,-446.59 1146.28,-446.59 1152.5,-446.82 1146.45,-442.09 1156.28,-446.96"/>
</g>
<!-- src.nse.model.experiments.wing&#45;&gt;src.base.model.shape -->
<g id="edge69" class="edge">
<title>src.nse.model.experiments.wing&#45;&gt;src.base.model.shape</title>
<path fill="none" stroke="black" d="M484.79,-252.41C448.01,-277.76 379.61,-324.91 338.32,-353.38"/>
<polygon fill="black" stroke="black" points="330.19,-358.98 335.87,-349.6 333.31,-356.83 338.43,-353.3 338.43,-353.3 338.43,-353.3 333.31,-356.83 340.98,-357.01 330.19,-358.98"/>
</g>
<!-- src.nse.model.experiments.wing&#45;&gt;src.nse.model.experiments.experiment -->
<g id="edge70" class="edge">
<title>src.nse.model.experiments.wing&#45;&gt;src.nse.model.experiments.experiment</title>
<path fill="none" stroke="black" d="M606.96,-248.7C685.02,-259.74 795.32,-275.34 880.03,-287.32"/>
<polygon fill="black" stroke="black" points="889.81,-288.7 879.27,-291.76 886.06,-288.17 879.9,-287.3 879.9,-287.3 879.9,-287.3 886.06,-288.17 880.53,-282.85 889.81,-288.7"/>
</g>
<!-- src.nse.model.loss -->
<g id="node29" class="node">
<title>src.nse.model.loss</title>
<polygon fill="#bbcc33" stroke="#bbcc33" points="2549.3,-36 2432.8,-36 2432.8,0 2549.3,0 2549.3,-36"/>
<text text-anchor="middle" x="2491.05" y="-12.95" font-family="Times New Roman,serif" font-size="14.00">src.nse.model.loss</text>
</g>
<!-- src.nse.view -->
<g id="node31" class="node">
<title>src.nse.view</title>
<polygon fill="#bbcc33" stroke="#bbcc33" points="2650.8,-36 2567.3,-36 2567.3,0 2650.8,0 2650.8,-36"/>
<text text-anchor="middle" x="2609.05" y="-12.95" font-family="Times New Roman,serif" font-size="14.00">src.nse.view</text>
</g>
<!-- src.nse.view.grading&#45;&gt;src -->
<g id="edge71" class="edge">
<title>src.nse.view.grading&#45;&gt;src</title>
<path fill="none" stroke="black" d="M1834.96,-180.41C1832.08,-204.5 1826.84,-248.25 1823.4,-276.97"/>
<polygon fill="black" stroke="black" points="1822.24,-286.68 1818.96,-276.22 1822.69,-282.92 1823.43,-276.75 1823.43,-276.75 1823.43,-276.75 1822.69,-282.92 1827.9,-277.29 1822.24,-286.68"/>
</g>
<!-- src.nse.view.grading&#45;&gt;src.base.model.algebra -->
<g id="edge72" class="edge">
<title>src.nse.view.grading&#45;&gt;src.base.model.algebra</title>
<path fill="none" stroke="black" d="M1864.64,-180.44C1898.38,-204.16 1951.05,-249.99 1951.05,-305 1951.05,-305 1951.05,-305 1951.05,-379 1951.05,-444.22 1495.13,-495.14 1304.89,-513.55"/>
<polygon fill="black" stroke="black" points="1295.06,-514.5 1304.58,-509.06 1298.82,-514.14 1305.01,-513.54 1305.01,-513.54 1305.01,-513.54 1298.82,-514.14 1305.44,-518.02 1295.06,-514.5"/>
</g>
<!-- src.nse.view.grading&#45;&gt;src.base.model.mesh -->
<g id="edge73" class="edge">
<title>src.nse.view.grading&#45;&gt;src.base.model.mesh</title>
<path fill="none" stroke="black" d="M1856.09,-180.16C1865.22,-189.7 1875.21,-202.38 1880.05,-216 1886.18,-233.29 1887.2,-310.5 1878.05,-324 1813.89,-418.63 1458.84,-441.65 1299.95,-447.23"/>
<polygon fill="black" stroke="black" points="1290.08,-447.56 1299.92,-442.72 1293.85,-447.43 1300.07,-447.22 1300.07,-447.22 1300.07,-447.22 1293.85,-447.43 1300.22,-451.72 1290.08,-447.56"/>
</g>
<!-- src.nse.view.grading&#45;&gt;src.base.view.plot -->
<g id="edge74" class="edge">
<title>src.nse.view.grading&#45;&gt;src.base.view.plot</title>
<path fill="none" stroke="black" d="M1816.97,-180.5C1792.2,-201.07 1747.96,-234.62 1704.05,-252 1659.35,-269.69 1531.96,-287.36 1452.04,-297.16"/>
<polygon fill="black" stroke="black" points="1442.3,-298.35 1451.69,-292.67 1446.06,-297.89 1452.23,-297.14 1452.23,-297.14 1452.23,-297.14 1446.06,-297.89 1452.77,-301.61 1442.3,-298.35"/>
</g>
<!-- src.nse.view.grading&#45;&gt;src.nse.controller.simulation -->
<g id="edge75" class="edge">
<title>src.nse.view.grading&#45;&gt;src.nse.controller.simulation</title>
<path fill="none" stroke="black" d="M1780.35,-180.48C1748.95,-190.17 1709.73,-202.26 1676.85,-212.4"/>
<polygon fill="black" stroke="black" points="1667.58,-215.26 1675.81,-208.01 1671.19,-214.14 1677.13,-212.31 1677.13,-212.31 1677.13,-212.31 1671.19,-214.14 1678.46,-216.61 1667.58,-215.26"/>
</g>
<!-- src.nse.view.grading&#45;&gt;src.nse.model.experiments.experiment -->
<g id="edge76" class="edge">
<title>src.nse.view.grading&#45;&gt;src.nse.model.experiments.experiment</title>
<path fill="none" stroke="black" d="M1772.93,-173.11C1682.8,-187.39 1528.2,-212.17 1516.05,-216 1480.78,-227.12 1476.54,-241.63 1441.05,-252 1338.92,-281.84 1218.6,-294.89 1130.25,-300.6"/>
<polygon fill="black" stroke="black" points="1120.31,-301.22 1130.01,-296.1 1124.08,-300.98 1130.29,-300.6 1130.29,-300.6 1130.29,-300.6 1124.08,-300.98 1130.57,-305.09 1120.31,-301.22"/>
</g>
<!-- src.nse.view.grading&#45;&gt;src.nse.model.record -->
<g id="edge77" class="edge">
<title>src.nse.view.grading&#45;&gt;src.nse.model.record</title>
<path fill="none" stroke="black" d="M1846.56,-180.43C1862.82,-212.82 1890.98,-282.77 1856.05,-324 1825.71,-359.81 1698.63,-371.45 1614.59,-375.22"/>
<polygon fill="black" stroke="black" points="1604.76,-375.63 1614.56,-370.71 1608.54,-375.47 1614.75,-375.21 1614.75,-375.21 1614.75,-375.21 1608.54,-375.47 1614.94,-379.7 1604.76,-375.63"/>
</g>
<!-- src.nse.view.grading&#45;&gt;src.utils.timer -->
<g id="edge78" class="edge">
<title>src.nse.view.grading&#45;&gt;src.utils.timer</title>
<path fill="none" stroke="black" d="M1884,-180.48C1909.54,-189.99 1941.32,-201.83 1968.25,-211.85"/>
<polygon fill="black" stroke="black" points="1977.55,-215.31 1966.61,-216.04 1974,-213.99 1968.18,-211.82 1968.18,-211.82 1968.18,-211.82 1974,-213.99 1969.75,-207.61 1977.55,-215.31"/>
</g>
<!-- src.nse.view.prediction&#45;&gt;src -->
<g id="edge79" class="edge">
<title>src.nse.view.prediction&#45;&gt;src</title>
<path fill="none" stroke="black" d="M1681.89,-180.45C1699.24,-189.88 1720.07,-202.38 1737.05,-216 1760.52,-234.84 1783.57,-260.26 1799.4,-279.12"/>
<polygon fill="black" stroke="black" points="1805.57,-286.59 1795.73,-281.75 1803.16,-283.67 1799.2,-278.88 1799.2,-278.88 1799.2,-278.88 1803.16,-283.67 1802.67,-276.01 1805.57,-286.59"/>
</g>
<!-- src.nse.view.prediction&#45;&gt;src.base.model.mesh -->
<g id="edge80" class="edge">
<title>src.nse.view.prediction&#45;&gt;src.base.model.mesh</title>
<path fill="none" stroke="black" d="M1670.93,-180.34C1682.38,-189.75 1695.44,-202.25 1704.05,-216 1721.8,-244.36 1721.1,-254.91 1726.05,-288 1733.83,-340.13 1722.13,-368.69 1677.05,-396 1615.3,-433.41 1412,-444.41 1299.55,-447.65"/>
<polygon fill="black" stroke="black" points="1289.84,-447.92 1299.71,-443.15 1293.62,-447.81 1299.84,-447.64 1299.84,-447.64 1299.84,-447.64 1293.62,-447.81 1299.96,-452.14 1289.84,-447.92"/>
</g>
<!-- src.nse.view.prediction&#45;&gt;src.base.view.plot -->
<g id="edge81" class="edge">
<title>src.nse.view.prediction&#45;&gt;src.base.view.plot</title>
<path fill="none" stroke="black" d="M1597.11,-180.39C1572.19,-189.77 1541.93,-202.23 1516.05,-216 1479.97,-235.19 1441.54,-261.9 1415.5,-281.04"/>
<polygon fill="black" stroke="black" points="1407.48,-287 1412.83,-277.42 1410.51,-284.74 1415.51,-281.04 1415.51,-281.04 1415.51,-281.04 1410.51,-284.74 1418.19,-284.65 1407.48,-287"/>
</g>
<!-- src.nse.view.prediction&#45;&gt;src.nse.controller.simulation -->
<g id="edge82" class="edge">
<title>src.nse.view.prediction&#45;&gt;src.nse.controller.simulation</title>
<path fill="none" stroke="black" d="M1637.9,-180.3C1633.78,-188.1 1628.81,-197.49 1624.23,-206.17"/>
<polygon fill="black" stroke="black" points="1619.66,-214.82 1620.35,-203.87 1621.42,-211.48 1624.33,-205.98 1624.33,-205.98 1624.33,-205.98 1621.42,-211.48 1628.31,-208.08 1619.66,-214.82"/>
</g>
<!-- src.nse.view.prediction&#45;&gt;src.nse.model.experiments.experiment -->
<g id="edge83" class="edge">
<title>src.nse.view.prediction&#45;&gt;src.nse.model.experiments.experiment</title>
<path fill="none" stroke="black" d="M1576.04,-177.74C1539.38,-186.58 1494.4,-199.36 1456.05,-216 1427.86,-228.22 1425.99,-241.72 1397.05,-252 1310.97,-282.56 1208.54,-295.67 1129.97,-301.21"/>
<polygon fill="black" stroke="black" points="1120.26,-301.87 1129.93,-296.71 1124.03,-301.61 1130.24,-301.2 1130.24,-301.2 1130.24,-301.2 1124.03,-301.61 1130.54,-305.69 1120.26,-301.87"/>
</g>
<!-- src.utils -->
<g id="node34" class="node">
<title>src.utils</title>
<polygon fill="#aaaa00" stroke="#aaaa00" points="2727.42,-36 2668.67,-36 2668.67,0 2727.42,0 2727.42,-36"/>
<text text-anchor="middle" x="2698.05" y="-12.95" font-family="Times New Roman,serif" font-size="14.00">src.utils</text>
</g>
</g>
</svg>
